<?xml version="1.0" encoding="utf-8"?>
<!-- Generator: Adobe Illustrator 25.3.1, SVG Export Plug-In . SVG Version: 6.00 Build 0)  -->
<svg version="1.1" id="Capa_1" xmlns="http://www.w3.org/2000/svg" xmlns:xlink="http://www.w3.org/1999/xlink" x="0px" y="0px"
	 viewBox="0 0 500 500" style="enable-background:new 0 0 500 500;" xml:space="preserve">
<style type="text/css">
	.st0{fill:#383838;}
</style>
<path class="st0" d="M446.1,193.7c-0.9,54.4-16.4,98.6-48,137.1c-43.5,52.9-87,105.8-130.5,158.7c-11.5,14-23.8,14-35.3,0.1
	C187.1,434.5,141,380.1,96.8,324.1C33.1,243.3,41.2,123.7,114,54c42.6-40.8,94-57.4,152.7-53.5c77.3,5.1,159,61.2,176.4,163.9
	C445,175.7,445.5,187.1,446.1,193.7z M173.1,191.9c-0.1,42.3,34.2,76.9,76.5,77.2c42.2,0.2,77.2-34.3,77.3-76.4
	c0.1-42.5-34.1-77.3-76.3-77.4C207.9,115.1,173.2,149.4,173.1,191.9z"/>
</svg>
