<?xml version="1.0" encoding="utf-8"?>
<!-- Generator: Adobe Illustrator 25.3.1, SVG Export Plug-In . SVG Version: 6.00 Build 0)  -->
<svg version="1.1" id="Capa_1" xmlns="http://www.w3.org/2000/svg" xmlns:xlink="http://www.w3.org/1999/xlink" x="0px" y="0px"
	 viewBox="0 0 500 500" style="enable-background:new 0 0 500 500;" xml:space="preserve">
<style type="text/css">
	.st0{fill:#383838;}
</style>
<path class="st0" d="M494.2,368.3c-3.1,7.2-5.2,15.1-9.6,21.4c-9.9,14.4-24.5,20.3-41.9,20.3c-42.1-0.1-84.2,0-126.4,0
	c-86.1,0-172.3-0.1-258.4,0.1c-17.3,0-31.7-5.9-42.3-19.8c-6.8-8.9-9.8-19-9.7-30.2c0.1-46.1,0-92.2,0-138.3c0-26.7,0-53.4,0-80.1
	c0-30.5,20.8-51.4,51.5-51.4c39.3-0.1,78.5,0,117.8,0c89,0,178,0.1,267-0.1c17.5,0,32.3,5.8,42.4,20.3c4.4,6.3,6.5,14.2,9.6,21.4
	C494.2,210.6,494.2,289.4,494.2,368.3z M68.3,122.7c1.8,1.9,2.8,3,3.9,4.2C129,183.5,185.7,240.3,242.4,297c6.2,6.2,9,6.2,15.1,0.1
	c56.8-56.8,113.7-113.7,170.5-170.5c1.1-1.1,2-2.2,3.6-3.9C310.3,122.7,189.8,122.7,68.3,122.7z M421.7,377.3c-33-33-66-66-100-100
	c-0.5,0.8-1.3,2.5-2.5,3.7c-13.2,13.3-26.4,26.6-39.7,39.8c-14.5,14.4-32.7,17.2-49.5,7.4c-3.8-2.2-7.2-5.3-10.3-8.4
	c-14.2-14.1-28.3-28.3-41.3-41.4c-33.4,33.4-66.5,66.5-98.9,98.9C192.8,377.3,307.5,377.3,421.7,377.3z M152.3,254.2
	c-37.5-37.5-75.7-75.7-113.9-113.9c0,0.4-0.1,1.3-0.1,2.2c0,72.6,0,145.2,0,217.8c0,2.4,0.7,4.8,1,6.9
	C77.3,329.2,115.1,291.4,152.3,254.2z M347.8,253.9c37.4,37.4,75.2,75.2,112.8,112.8c1.5-3.4,2.4-218.2,0.8-226.3
	C423.4,178.3,385.3,216.4,347.8,253.9z"/>
</svg>
