<?xml version="1.0" encoding="utf-8"?>
<!-- Generator: Adobe Illustrator 25.3.1, SVG Export Plug-In . SVG Version: 6.00 Build 0)  -->
<svg version="1.1" id="Capa_1" xmlns="http://www.w3.org/2000/svg" xmlns:xlink="http://www.w3.org/1999/xlink" x="0px" y="0px"
	 viewBox="0 0 200 200" style="enable-background:new 0 0 200 200;" xml:space="preserve">
<style type="text/css">
	.st0{fill:#FFFFFF;}
	.st1{fill:#FFFFFF;stroke:#1D1D1B;stroke-width:0.4387;stroke-miterlimit:10;}
</style>
<g>
	<g>
		<g>
			<path class="st0" d="M16.3,112.7H28v2.6h-1.3c-0.8,0-1.3,0.1-1.5,0.3s-0.3,0.7-0.3,1.4v13.1h1.6c1.5,0,2.6-0.1,3.2-0.2
				s1.1-0.4,1.4-0.7c0.4-0.4,0.7-0.9,1-1.6c0.2-0.7,0.4-1.7,0.5-3h2.6v8.2H16.3v-2.6h1.1c0.8,0,1.3-0.1,1.5-0.3s0.3-0.7,0.3-1.5
				v-11.4c0-0.8-0.1-1.3-0.3-1.5c-0.2-0.2-0.7-0.3-1.5-0.3h-1.1V112.7z"/>
			<path class="st0" d="M37.2,125.7c0-2.4,0.7-4.2,2.2-5.6c1.5-1.4,3.5-2,6-2c2.5,0,4.6,0.7,6,2c1.5,1.4,2.2,3.2,2.2,5.6
				c0,2.4-0.7,4.2-2.2,5.6s-3.5,2-6,2s-4.6-0.7-6-2S37.2,128.1,37.2,125.7z M42.7,125.7c0,1.9,0.2,3.2,0.6,3.9
				c0.4,0.7,1.1,1.1,2.2,1.1c1,0,1.8-0.4,2.2-1.1c0.4-0.7,0.6-2,0.6-3.9c0-1.9-0.2-3.2-0.6-4c-0.4-0.7-1.1-1.1-2.2-1.1
				c-1,0-1.7,0.4-2.2,1.1C42.9,122.5,42.7,123.8,42.7,125.7z"/>
			<path class="st0" d="M57.8,133h-2.1v-5.3h2.4c0.4,1,0.9,1.7,1.7,2.3s1.7,0.8,2.7,0.8c0.7,0,1.2-0.1,1.6-0.3
				c0.4-0.2,0.6-0.6,0.6-1c0-0.3-0.1-0.6-0.4-0.8c-0.2-0.2-0.9-0.4-1.9-0.7c-0.2,0-0.4-0.1-0.7-0.2c-2.3-0.6-3.8-1.2-4.6-1.7
				c-0.5-0.4-0.9-0.8-1.2-1.4s-0.4-1.1-0.4-1.8c0-1.4,0.6-2.6,1.8-3.5s2.7-1.3,4.7-1.3c0.9,0,1.7,0.1,2.5,0.3
				c0.8,0.2,1.6,0.5,2.3,0.9l0.3-0.8h2.1v4.5h-2.1c-0.5-0.8-1.1-1.4-1.9-1.8c-0.8-0.4-1.6-0.6-2.5-0.6c-0.6,0-1,0.1-1.3,0.3
				c-0.3,0.2-0.5,0.5-0.5,0.9c0,0.7,1.1,1.3,3.4,1.9c0.6,0.2,1.1,0.3,1.5,0.4c1.4,0.4,2.4,0.9,3.2,1.7s1.1,1.6,1.1,2.7
				c0,1.4-0.6,2.6-1.8,3.5s-2.8,1.3-4.8,1.3c-0.8,0-1.6-0.1-2.5-0.3c-0.8-0.2-1.7-0.6-2.6-1.1L57.8,133z"/>
		</g>
		<g>
			<path class="st0" d="M16.3,157.3v-2.6h1.1c0.8,0,1.3-0.1,1.5-0.3c0.2-0.2,0.3-0.7,0.3-1.5v-11.4c0-0.8-0.1-1.3-0.3-1.5
				c-0.2-0.2-0.7-0.3-1.5-0.3h-1.1v-2.6h11v2.6h-0.6c-0.8,0-1.3,0.1-1.5,0.3c-0.2,0.2-0.3,0.7-0.3,1.4v3.9h6.5v-3.9
				c0-0.8-0.1-1.2-0.3-1.4s-0.7-0.3-1.5-0.3H29v-2.6h11v2.6h-1.1c-0.8,0-1.3,0.1-1.5,0.3c-0.2,0.2-0.3,0.7-0.3,1.4V153
				c0,0.8,0.1,1.2,0.3,1.4c0.2,0.2,0.7,0.3,1.5,0.3H40v2.6H29v-2.6h0.6c0.8,0,1.3-0.1,1.5-0.3c0.2-0.2,0.3-0.7,0.3-1.4v-4.7h-6.5
				v4.7c0,0.8,0.1,1.2,0.3,1.4c0.2,0.2,0.7,0.3,1.5,0.3h0.6v2.6H16.3z"/>
			<path class="st0" d="M41.3,150.3c0-2.4,0.7-4.2,2.2-5.6c1.5-1.4,3.5-2,6-2c2.5,0,4.6,0.7,6,2c1.5,1.4,2.2,3.2,2.2,5.6
				c0,2.4-0.7,4.2-2.2,5.6s-3.5,2-6,2s-4.6-0.7-6-2S41.3,152.6,41.3,150.3z M46.7,150.3c0,1.9,0.2,3.2,0.6,3.9
				c0.4,0.7,1.1,1.1,2.2,1.1c1,0,1.8-0.4,2.2-1.1c0.4-0.7,0.6-2,0.6-3.9c0-1.9-0.2-3.2-0.6-4c-0.4-0.7-1.1-1.1-2.2-1.1
				c-1,0-1.7,0.4-2.2,1.1C46.9,147,46.7,148.4,46.7,150.3z"/>
			<path class="st0" d="M59,157.3v-2.4h0.9c0.6,0,1-0.1,1.1-0.3c0.2-0.2,0.3-0.6,0.3-1.1V147c0-0.6-0.1-1-0.3-1.1
				c-0.2-0.2-0.6-0.3-1.1-0.3H59v-2.4h7.1v1.4c0.5-0.6,1.1-1.1,1.7-1.4c0.6-0.3,1.2-0.5,1.9-0.5c1.1,0,1.9,0.3,2.5,0.9
				s0.9,1.4,0.9,2.4c0,0.9-0.2,1.6-0.7,2.1s-1.1,0.8-1.9,0.8c-0.6,0-1.1-0.2-1.6-0.6c-0.4-0.4-0.6-0.9-0.6-1.5
				c0-0.5,0.1-0.8,0.4-1.2s0.6-0.5,1.1-0.7c-0.2-0.1-0.3-0.1-0.5-0.2c-0.1,0-0.3-0.1-0.4-0.1c-0.7,0-1.4,0.4-1.8,1.2
				s-0.7,1.8-0.7,3.1v4.5c0,0.6,0.1,1,0.3,1.1c0.2,0.2,0.6,0.3,1.1,0.3h1.2v2.4H59z"/>
			<path class="st0" d="M74.2,157.3v-2.4h0.8c0.6,0,1-0.1,1.1-0.3c0.2-0.2,0.3-0.6,0.3-1.1V147c0-0.6-0.1-1-0.3-1.1
				c-0.2-0.2-0.6-0.3-1.1-0.3h-0.8v-2.4h7v2.2c0.6-0.8,1.3-1.5,2.2-1.9c0.8-0.4,1.8-0.7,2.8-0.7c1.7,0,2.9,0.4,3.6,1.2
				c0.7,0.8,1.1,2.1,1.1,4.1v5.5c0,0.6,0.1,1,0.3,1.1c0.2,0.2,0.6,0.3,1.1,0.3h0.7v2.4h-8.8v-2.4h0.3c0.6,0,0.9-0.1,1.1-0.3
				c0.2-0.2,0.3-0.6,0.3-1.1V148c0-0.8-0.2-1.5-0.5-1.9c-0.3-0.4-0.9-0.6-1.6-0.6c-0.8,0-1.4,0.3-1.8,0.8c-0.4,0.6-0.6,1.3-0.6,2.4
				v4.8c0,0.6,0.1,1,0.3,1.1c0.2,0.2,0.6,0.3,1.1,0.3h0.3v2.4H74.2z"/>
			<path class="st0" d="M105.6,152.6l3.6,0c-0.4,1.8-1.3,3.1-2.5,4c-1.2,0.9-2.8,1.3-4.7,1.3c-2.3,0-4.1-0.7-5.5-2.1
				c-1.4-1.4-2.1-3.2-2.1-5.4c0-2.4,0.7-4.2,2-5.6c1.3-1.4,3.2-2.1,5.5-2.1c2.4,0,4.2,0.7,5.5,2c1.3,1.3,2,3.2,2,5.6v0.5h-9.7v0.2
				c0,1.3,0.2,2.3,0.7,2.9c0.5,0.7,1.2,1,2.2,1c0.9,0,1.6-0.2,2.1-0.6C105.2,154,105.5,153.3,105.6,152.6z M99.7,148.5l4.6,0v-0.1
				c0-1-0.2-1.8-0.6-2.3c-0.4-0.5-1-0.8-1.8-0.8c-0.7,0-1.3,0.3-1.7,0.8C99.9,146.7,99.7,147.4,99.7,148.5z"/>
			<path class="st0" d="M110.7,157.3v-2.4h0.9c0.6,0,1-0.1,1.1-0.3c0.2-0.2,0.3-0.6,0.3-1.1V147c0-0.6-0.1-1-0.3-1.1
				c-0.2-0.2-0.6-0.3-1.1-0.3h-0.9v-2.4h7.1v1.4c0.5-0.6,1.1-1.1,1.7-1.4c0.6-0.3,1.2-0.5,1.9-0.5c1.1,0,1.9,0.3,2.5,0.9
				s0.9,1.4,0.9,2.4c0,0.9-0.2,1.6-0.7,2.1s-1.1,0.8-1.9,0.8c-0.6,0-1.1-0.2-1.6-0.6c-0.4-0.4-0.6-0.9-0.6-1.5
				c0-0.5,0.1-0.8,0.4-1.2s0.6-0.5,1.1-0.7c-0.2-0.1-0.3-0.1-0.5-0.2c-0.1,0-0.3-0.1-0.4-0.1c-0.7,0-1.4,0.4-1.8,1.2
				s-0.7,1.8-0.7,3.1v4.5c0,0.6,0.1,1,0.3,1.1c0.2,0.2,0.6,0.3,1.1,0.3h1.2v2.4H110.7z"/>
			<path class="st0" d="M128.3,147.4v-0.2c0-0.8-0.1-1.2-0.3-1.4c-0.2-0.2-0.5-0.2-1.1-0.2h-1v-2.5h7.4v10.3c0,0.6,0.1,1,0.3,1.2
				c0.2,0.2,0.5,0.3,1.1,0.3h0.7v2.4H126v-2.4h0.9c0.6,0,1-0.1,1.1-0.3c0.2-0.2,0.3-0.6,0.3-1.2V147.4z M128.1,139.5
				c0-0.7,0.2-1.3,0.7-1.8c0.5-0.5,1.1-0.7,1.8-0.7c0.7,0,1.3,0.2,1.8,0.7c0.5,0.5,0.7,1.1,0.7,1.8c0,0.7-0.2,1.3-0.7,1.8
				c-0.5,0.5-1.1,0.7-1.8,0.7c-0.7,0-1.3-0.2-1.8-0.7S128.1,140.2,128.1,139.5z"/>
			<path class="st0" d="M138.9,145.6h-2v-2.2c1.2-0.1,2.1-0.7,2.8-1.7s1.1-2.3,1.2-4h3v5.5h3.6v2.4h-3.6v7.8c0,0.6,0.1,1,0.3,1.3
				c0.2,0.3,0.5,0.4,0.9,0.4c0.5,0,0.8-0.2,1-0.6c0.2-0.4,0.3-1.3,0.3-2.6v-1.3h2.4v2.1c0,1.8-0.4,3.1-1.2,3.9
				c-0.8,0.8-2,1.3-3.7,1.3c-1.7,0-3-0.4-3.7-1.3c-0.7-0.8-1.1-2.3-1.1-4.4V145.6z"/>
			<path class="st0" d="M150.9,150.3c0-2.4,0.7-4.2,2.2-5.6c1.5-1.4,3.5-2,6-2c2.5,0,4.6,0.7,6,2c1.5,1.4,2.2,3.2,2.2,5.6
				c0,2.4-0.7,4.2-2.2,5.6s-3.5,2-6,2s-4.6-0.7-6-2S150.9,152.6,150.9,150.3z M156.4,150.3c0,1.9,0.2,3.2,0.6,3.9
				c0.4,0.7,1.1,1.1,2.2,1.1c1,0,1.8-0.4,2.2-1.1c0.4-0.7,0.6-2,0.6-3.9c0-1.9-0.2-3.2-0.6-4c-0.4-0.7-1.1-1.1-2.2-1.1
				c-1,0-1.7,0.4-2.2,1.1C156.6,147,156.4,148.4,156.4,150.3z"/>
			<path class="st0" d="M171.5,157.5h-2.1v-5.3h2.4c0.4,1,0.9,1.7,1.7,2.3s1.7,0.8,2.7,0.8c0.7,0,1.2-0.1,1.6-0.3
				c0.4-0.2,0.6-0.6,0.6-1c0-0.3-0.1-0.6-0.4-0.8c-0.2-0.2-0.9-0.4-1.9-0.7c-0.2,0-0.4-0.1-0.7-0.2c-2.3-0.6-3.8-1.2-4.6-1.7
				c-0.5-0.4-0.9-0.8-1.2-1.4c-0.3-0.5-0.4-1.1-0.4-1.8c0-1.4,0.6-2.6,1.8-3.5s2.7-1.3,4.7-1.3c0.9,0,1.7,0.1,2.5,0.3
				c0.8,0.2,1.6,0.5,2.3,0.9l0.3-0.8h2.1v4.5h-2.1c-0.5-0.8-1.1-1.4-1.9-1.8c-0.8-0.4-1.6-0.6-2.5-0.6c-0.6,0-1,0.1-1.3,0.3
				c-0.3,0.2-0.5,0.5-0.5,0.9c0,0.7,1.1,1.3,3.4,1.9c0.6,0.2,1.1,0.3,1.5,0.4c1.4,0.4,2.4,0.9,3.2,1.7c0.7,0.8,1.1,1.6,1.1,2.7
				c0,1.4-0.6,2.6-1.8,3.5c-1.2,0.9-2.8,1.3-4.8,1.3c-0.8,0-1.6-0.1-2.5-0.3c-0.8-0.2-1.7-0.6-2.6-1.1L171.5,157.5z"/>
		</g>
		<g>
			<path class="st0" d="M23.7,165l-0.1,1.2h-2.9v9.1h-1.4v-9.1h-2.9V165H23.7z"/>
			<path class="st0" d="M30.1,175.3l-0.8-2.6h-3.9l-0.8,2.6h-1.4l3.3-10.3h1.8l3.3,10.3H30.1z M25.7,171.6H29l-1.6-5.4L25.7,171.6z"
				/>
			<path class="st0" d="M34.6,165v9.1h4.2l-0.2,1.2h-5.5V165H34.6z"/>
			<path class="st0" d="M42.1,165v9.1h4.2l-0.2,1.2h-5.5V165H42.1z"/>
			<path class="st0" d="M53.7,165l-0.2,1.1h-4v3.4H53v1.1h-3.5v3.5h4.3v1.1h-5.7V165H53.7z"/>
			<path class="st0" d="M59.2,171h-1.6v4.4h-1.4V165h2.7c1.3,0,2.3,0.2,2.9,0.7c0.7,0.5,1,1.2,1,2.2c0,0.7-0.2,1.3-0.6,1.8
				s-0.9,0.8-1.7,1l2.8,4.6h-1.7L59.2,171z M59,169.9c0.8,0,1.3-0.2,1.7-0.5c0.4-0.3,0.6-0.8,0.6-1.5c0-0.6-0.2-1.1-0.6-1.4
				c-0.4-0.3-1-0.4-1.9-0.4h-1.3v3.8H59z"/>
			<path class="st0" d="M74.9,165.8c0.7,0.5,1.1,1.3,1.1,2.4c0,1.1-0.4,2-1.1,2.5c-0.7,0.5-1.7,0.8-2.9,0.8h-1.3v3.8h-1.4V165h2.7
				C73.2,165,74.2,165.3,74.9,165.8z M73.8,169.9c0.4-0.3,0.7-0.9,0.7-1.7c0-0.7-0.2-1.3-0.7-1.6c-0.4-0.3-1.1-0.5-1.9-0.5h-1.3v4.3
				h1.2C72.7,170.4,73.3,170.3,73.8,169.9z"/>
			<path class="st0" d="M80.9,171h-1.6v4.4h-1.4V165h2.7c1.3,0,2.3,0.2,2.9,0.7c0.7,0.5,1,1.2,1,2.2c0,0.7-0.2,1.3-0.6,1.8
				s-0.9,0.8-1.7,1l2.8,4.6h-1.7L80.9,171z M80.8,169.9c0.8,0,1.3-0.2,1.7-0.5c0.4-0.3,0.6-0.8,0.6-1.5c0-0.6-0.2-1.1-0.6-1.4
				c-0.4-0.3-1-0.4-1.9-0.4h-1.3v3.8H80.8z"/>
			<path class="st0" d="M92.8,165.5c0.7,0.4,1.2,1,1.5,1.8c0.4,0.8,0.5,1.8,0.5,2.9c0,1.1-0.2,2.1-0.5,2.9c-0.4,0.8-0.9,1.4-1.5,1.8
				c-0.7,0.4-1.4,0.6-2.3,0.6c-0.9,0-1.6-0.2-2.3-0.6c-0.7-0.4-1.2-1-1.5-1.8s-0.5-1.8-0.5-2.9c0-1.1,0.2-2.1,0.5-2.9
				c0.4-0.8,0.9-1.4,1.5-1.9c0.7-0.4,1.4-0.6,2.3-0.6C91.4,164.8,92.2,165,92.8,165.5z M88.4,167c-0.5,0.7-0.8,1.7-0.8,3.2
				c0,1.4,0.3,2.5,0.8,3.1c0.5,0.7,1.2,1,2.1,1c1.9,0,2.8-1.4,2.8-4.2c0-2.8-1-4.2-2.8-4.2C89.6,166,88.9,166.3,88.4,167z"/>
			<path class="st0" d="M102.8,165l-0.2,1.2h-2.9v9.1h-1.4v-9.1h-2.9V165H102.8z"/>
			<path class="st0" d="M110.1,165l-0.2,1.1h-4v3.4h3.5v1.1h-3.5v3.5h4.3v1.1h-5.7V165H110.1z"/>
			<path class="st0" d="M117.8,165.1c0.5,0.2,0.9,0.5,1.4,0.9l-0.8,0.9c-0.4-0.3-0.7-0.5-1.1-0.6c-0.3-0.1-0.7-0.2-1.2-0.2
				c-0.5,0-1,0.1-1.5,0.4c-0.4,0.3-0.8,0.7-1.1,1.4c-0.3,0.6-0.4,1.4-0.4,2.4c0,1.5,0.2,2.5,0.7,3.2s1.2,1,2.1,1
				c0.8,0,1.4-0.2,2-0.5v-3.1h-1.8l-0.2-1.2h3.4v5c-1.1,0.6-2.2,0.9-3.4,0.9c-1.4,0-2.4-0.5-3.2-1.4c-0.8-0.9-1.1-2.2-1.1-4
				c0-1.1,0.2-2.1,0.6-2.9c0.4-0.8,0.9-1.4,1.6-1.8c0.7-0.4,1.4-0.6,2.2-0.6C116.8,164.8,117.3,164.9,117.8,165.1z"/>
			<path class="st0" d="M123.2,165v10.3h-1.4V165H123.2z"/>
			<path class="st0" d="M132.1,166.1c0.9,0.7,1.4,2.1,1.4,4c0,1.9-0.5,3.3-1.4,4s-2.1,1.2-3.4,1.2h-2.5V165h2.2
				C129.9,165,131.2,165.4,132.1,166.1z M127.6,166.1v8.1h1.2c1,0,1.7-0.3,2.3-0.9s0.9-1.7,0.9-3.2c0-1.1-0.2-1.9-0.5-2.5
				s-0.7-1-1.2-1.2c-0.5-0.2-1-0.3-1.7-0.3H127.6z"/>
			<path class="st0" d="M141.8,165.5c0.7,0.4,1.2,1,1.5,1.8c0.4,0.8,0.5,1.8,0.5,2.9c0,1.1-0.2,2.1-0.5,2.9
				c-0.4,0.8-0.9,1.4-1.5,1.8c-0.7,0.4-1.4,0.6-2.3,0.6s-1.6-0.2-2.3-0.6c-0.7-0.4-1.2-1-1.5-1.8c-0.4-0.8-0.5-1.8-0.5-2.9
				c0-1.1,0.2-2.1,0.5-2.9c0.4-0.8,0.9-1.4,1.5-1.9c0.7-0.4,1.4-0.6,2.3-0.6C140.4,164.8,141.2,165,141.8,165.5z M137.5,167
				c-0.5,0.7-0.8,1.7-0.8,3.2c0,1.4,0.3,2.5,0.8,3.1c0.5,0.7,1.2,1,2.1,1c1.9,0,2.8-1.4,2.8-4.2c0-2.8-0.9-4.2-2.8-4.2
				C138.7,166,138,166.3,137.5,167z"/>
		</g>
	</g>
	<g>
		<path class="st0" d="M107.2,57.7c0,0,0.1-0.1,0.4-0.2c0.2-0.1,0.6-0.4,1-0.6c0.5-0.2,1-0.5,1.7-0.7c0.7-0.2,1.5-0.4,2.4-0.5
			c0.9-0.1,1.9-0.1,3,0.1c1.1,0.2,2.2,0.6,3.2,1.2c0.5,0.3,1,0.7,1.5,1l0.2,0.2l0.2,0.1l0.3,0.3c0.2,0.2,0.5,0.5,0.7,0.7
			c0.8,0.9,1.5,1.9,2.1,3c1.2,2.1,2,4.4,2.5,6.5c0.3,1.1,0.4,2.1,0.6,3.1c0,0.2,0.1,0.5,0.1,0.6l0,0.2c0,0.1,0,0.1,0,0.1l0.1,0.2
			c0.1,0.4,0.3,0.7,0.5,1.1c0.4,0.7,0.8,1.3,1.2,1.9c0.4,0.5,0.8,1,1.1,1.4c0.3,0.4,0.6,0.7,0.8,0.9c0.2,0.2,0.3,0.3,0.3,0.3
			s-0.1,0-0.4-0.2c-0.2-0.1-0.6-0.3-1-0.6c-0.4-0.3-0.9-0.6-1.5-1.1c-0.5-0.5-1.1-1-1.7-1.7c-0.3-0.3-0.6-0.7-0.9-1.2
			c-0.1-0.1-0.1-0.3-0.2-0.4c0-0.1-0.1-0.1-0.1-0.2l-0.1-0.2c-0.1-0.4-0.2-0.5-0.3-0.8c-0.3-0.9-0.6-1.9-0.9-2.9c-0.3-1-0.7-2-1.1-3
			c-0.4-1-0.9-2-1.4-2.9c-0.5-0.9-1.1-1.8-1.7-2.6c-0.2-0.2-0.3-0.4-0.5-0.5l-0.3-0.3l-0.1-0.1l-0.1-0.1c-0.2-0.2-0.4-0.3-0.5-0.5
			l-0.3-0.2l-0.3-0.2c-0.8-0.6-1.6-1-2.4-1.3c-0.8-0.3-1.7-0.4-2.5-0.5c-0.2,0-0.4,0-0.6,0c-0.2,0-0.4,0-0.6,0c-0.4,0-0.7,0-1.1,0
			c-0.7,0.1-1.3,0.1-1.7,0.2c-0.5,0.1-0.9,0.2-1.1,0.2C107.4,57.7,107.2,57.7,107.2,57.7z"/>
		<path class="st0" d="M121.3,87.7c0,0-0.3-0.1-0.6-0.4c-0.4-0.3-0.9-0.8-1.4-1.5c-0.2-0.4-0.5-0.8-0.7-1.2
			c-0.2-0.4-0.4-0.9-0.5-1.5c-0.1-0.3-0.1-0.5-0.2-0.8c0-0.1,0-0.3,0-0.4l0-0.2l0-0.1l0,0l0,0l0-0.1l0-0.1l0-0.4l0-0.2l0-0.2
			c0-0.3,0-0.6,0.1-0.9c0.1-0.6,0.2-1.2,0.4-1.7c0.2-0.5,0.5-1,0.7-1.5c0.3-0.5,0.6-0.9,0.9-1.2c0.2-0.2,0.3-0.4,0.5-0.5
			c0.2-0.2,0.3-0.3,0.5-0.4c0.2-0.1,0.3-0.2,0.5-0.4c0.2-0.1,0.3-0.2,0.5-0.3c0.3-0.2,0.6-0.3,0.8-0.4c0.2-0.1,0.4-0.1,0.5-0.2
			c0.1,0,0.2,0,0.2,0s0,0-0.1,0.1c-0.1,0.1-0.2,0.2-0.4,0.4c-0.2,0.2-0.3,0.4-0.5,0.6c-0.1,0.1-0.2,0.3-0.3,0.4
			c-0.1,0.1-0.2,0.3-0.3,0.4c-0.1,0.2-0.2,0.3-0.3,0.5c-0.1,0.2-0.2,0.3-0.3,0.5c-0.1,0.2-0.2,0.4-0.3,0.6c-0.1,0.2-0.2,0.4-0.3,0.6
			c-0.1,0.2-0.2,0.4-0.2,0.6c-0.1,0.2-0.1,0.4-0.2,0.7c-0.1,0.5-0.2,0.9-0.2,1.4c0,0.2,0,0.5-0.1,0.7l0,0.2l0,0.2l0,0.4l0,0.1
			c0,0,0,0,0,0l0,0l0,0l0,0l0,0l0,0.2c0,0.1,0,0.2,0,0.3c0,0.2,0,0.5,0.1,0.7c0.1,0.4,0.1,0.9,0.2,1.3c0.1,0.4,0.2,0.8,0.2,1.2
			c0.1,0.4,0.2,0.7,0.3,1c0.1,0.3,0.2,0.6,0.2,0.8C121.2,87.4,121.3,87.7,121.3,87.7z"/>
		<path class="st0" d="M104.3,59.8c-5.4-0.7-13.5-1.4-13.3,0.7c2.8-0.1,7.8,1.8,7.8,1.9c0.6,1.1,0.9,2.7,2.4,3.5
			c1.8-0.5,1.2-3.7,1.1-3.8C103.8,61.2,104.3,59.8,104.3,59.8z"/>
		<path class="st0" d="M183.6,74.6c-0.2-3.1-0.8-6.3-1.7-9.3c-1.8-6.1-4.7-11.8-8.5-17c-3.8-5.1-8.4-9.6-13.7-13.3
			c-5.2-3.7-11.1-6.5-17.2-8.3c-6.1-1.8-12.5-2.5-18.8-2.1c-6.3,0.4-12.5,1.7-18.2,4c-5.7,2.3-11,5.5-15.5,9.4
			c-4.6,3.9-8.4,8.4-11.4,13.3c-3,4.9-5.1,10.2-6.4,15.5c-1.3,5.3-1.7,10.7-1.4,15.8c0.3,5.1,1.1,10,2.4,14.5
			c1.3,4.5,3.2,8.7,5.4,12.4c2.2,3.7,4.8,6.9,7.5,9.6c2.7,2.7,5.5,4.9,8.3,6.7c2.8,1.7,5.5,3,8.1,4c5.1,2,9.3,2.6,12.2,3
			c1.4,0.2,2.5,0.2,3.3,0.3c0.7,0,1.1,0.1,1.1,0.1s-0.4,0-1.1-0.1c-0.7-0.1-1.8-0.2-3.3-0.5c-2.8-0.5-7-1.4-11.9-3.6
			c-4.9-2.1-10.5-5.6-15.5-11c-5-5.4-9.3-12.8-11.5-21.5c-1.1-4.4-1.8-9.1-1.9-13.9c-0.1-2.4,0-4.9,0.3-7.4c0.1-1.2,0.3-2.5,0.5-3.7
			c0.2-1.2,0.5-2.5,0.8-3.7C78,57.7,83.9,48.1,92.5,41c4.3-3.5,9.2-6.5,14.6-8.5c5.3-2.1,11.1-3.3,16.9-3.6c5.8-0.3,11.7,0.4,17.4,2
			c5.7,1.7,11,4.3,15.9,7.7c4.9,3.4,9.2,7.6,12.7,12.3c3.5,4.7,6.3,10,7.9,15.6c0.8,2.8,1.4,5.6,1.6,8.5c0.3,2.8,0.2,5.7-0.1,8.5
			c-0.6,5.7-2.3,11.1-5.1,15.8c-2.8,4.7-6.6,8.7-11,11.6c-4.4,3-9.4,4.9-14.3,5.8c-1.2,0.2-2.5,0.4-3.7,0.5
			c-1.2,0.1-2.5,0.1-3.7,0.1c-2.5-0.1-4.9-0.3-7.2-0.8c-2.3-0.5-4.5-1.3-6.4-2.5c-1.9-1.2-3.4-2.7-4.5-4.5c-1.1-1.8-1.6-3.9-1.9-6
			c0-0.3,0-0.5-0.1-0.8c0-0.3,0-0.5,0-0.8l0-0.4c0-0.1,0-0.3,0-0.4c0-0.3,0-0.5,0-0.8c0-0.5,0.1-1,0.1-1.5c0.1-0.5,0.1-1,0.2-1.5
			c0.7-4,2.2-7.6,4.1-10.8c1.9-3.2,4.1-5.9,6.3-8.2c2.2-2.3,4.6-4.1,6.8-5.5c1.1-0.7,2.3-1.2,3.4-1.6c0.3-0.1,0.6-0.2,0.8-0.3
			c0.3-0.1,0.5-0.1,0.8-0.2c0.5-0.1,1.1-0.2,1.6-0.3c2-0.3,3.8-0.1,5.2,0.3c1.4,0.4,2.3,1,2.9,1.4c0.6,0.4,0.8,0.8,0.8,0.8
			s-0.2-0.3-0.8-0.8c-0.6-0.5-1.5-1.1-2.9-1.6c-1.4-0.5-3.2-0.8-5.3-0.6c-0.5,0-1.1,0.1-1.6,0.2c-0.3,0.1-0.6,0.1-0.9,0.2
			c-0.3,0.1-0.6,0.1-0.9,0.2c-1.2,0.4-2.4,0.9-3.6,1.5c-2.4,1.3-4.9,3.1-7.3,5.3c-2.4,2.2-4.8,5-6.8,8.2c-2.1,3.2-3.8,7-4.7,11.3
			c-0.1,0.5-0.2,1.1-0.3,1.6c-0.1,0.6-0.1,1.1-0.2,1.7c0,0.3,0,0.6,0,0.8c0,0.1,0,0.3,0,0.4l0,0.4c0,0.3,0,0.6,0,0.9
			c0,0.3,0,0.6,0.1,0.9c0.2,2.3,0.8,4.7,2,7c0.4,0.8,1,1.6,1.6,2.3c-1-0.6-2-1.2-3.1-1.9c-0.9-0.6-1.7-1.3-2.6-2
			c-0.8-0.7-1.7-1.4-2.5-2.2c-0.4-0.4-0.8-0.8-1.2-1.2c-0.2-0.2-0.4-0.4-0.6-0.6l-0.3-0.3l-0.1-0.2l-0.1-0.1l-0.3-0.3l-0.3-0.3
			c-0.2-0.2-0.3-0.4-0.5-0.6c-0.3-0.4-0.7-0.9-1-1.3c-1.2-1.8-2.2-3.8-2.9-5.9c-0.8-2.1-1.3-4.2-1.7-6.3c-0.4-2.1-0.6-4.2-0.8-6.2
			c-0.1-1-0.1-2-0.1-2.9c0-0.9,0-1.9,0-2.7c0-0.9,0.1-1.7,0.1-2.5c0-0.4,0.1-0.8,0.1-1.1c0-0.2,0.1-0.4,0.1-0.5l0-0.1l0,0
			c0,0,0,0,0-0.1l0,0l0-0.1l0-0.1l0-0.2c0.1-1-0.2-1.8-0.5-2.4c-0.3-0.6-0.7-1.1-1.1-1.5c-0.7-0.8-1.4-1.3-1.8-1.7
			c-0.5-0.3-0.7-0.5-0.7-0.5s0.2,0.2,0.5,0.7c0.3,0.4,0.8,1.1,1.3,2c0.2,0.4,0.5,0.9,0.6,1.5c0.2,0.5,0.2,1.2,0,1.6c0,0,0,0,0,0.1
			l-0.1,0.1l0,0.1l0,0c0-0.1,0,0,0,0l0,0l-0.1,0.2c-0.1,0.2-0.2,0.4-0.2,0.6c-0.1,0.4-0.2,0.8-0.4,1.2c-0.2,0.8-0.4,1.7-0.6,2.6
			c-0.2,0.9-0.3,1.9-0.4,2.9c-0.1,1-0.2,2-0.2,3.1c-0.1,2.1-0.1,4.4,0.2,6.7c0.2,2.3,0.7,4.7,1.5,7.1c0.8,2.4,1.8,4.8,3.3,6.9
			c0.4,0.5,0.7,1.1,1.2,1.6c0.2,0.3,0.4,0.5,0.6,0.8l0.3,0.4l0.3,0.3l0.2,0.2l0.2,0.2l0.3,0.3c0.2,0.2,0.4,0.4,0.7,0.7
			c0.4,0.4,0.9,0.9,1.4,1.3c0.9,0.8,1.9,1.6,2.8,2.3c1,0.7,2,1.4,3,2c1,0.6,2,1.2,3.1,1.6c1,0.5,2.1,0.9,3.1,1.3
			c2,0.7,4,1.2,5.8,1.6c1.6,0.3,3.1,0.4,4.5,0.5c2.4,0.6,4.9,0.9,7.4,1c1.3,0.1,2.7,0.1,4,0c1.4-0.1,2.7-0.2,4.1-0.4
			c5.4-0.9,10.9-2.9,15.7-6c4.9-3.1,9.2-7.4,12.4-12.6c3.2-5.2,5.1-11.2,5.8-17.3C183.7,80.9,183.8,77.7,183.6,74.6z"/>
		<path class="st0" d="M163.9,104.2c0-0.5,0.1-1,0.1-1.5c0-0.5,0.1-0.9,0.1-1.4c0-0.5,0-0.9,0-1.4c0-0.2,0-0.5,0-0.7l-0.1-0.7
			c0-0.1,0-0.2,0-0.3l-0.1-0.3c0-0.2-0.1-0.4-0.1-0.7c0-0.2-0.1-0.4-0.2-0.6c-0.1-0.2-0.1-0.4-0.2-0.6l-0.2-0.6
			c-0.1-0.2-0.1-0.4-0.2-0.6l-0.3-0.6c-0.1-0.2-0.2-0.4-0.3-0.6c-0.2-0.4-0.4-0.8-0.7-1.1c-0.3-0.4-0.5-0.7-0.8-1.1
			c-0.3-0.3-0.5-0.7-0.9-1.1c-0.3-0.3-0.6-0.7-0.9-1l-1-1c-0.3-0.3-0.7-0.6-1-1l-0.5-0.5l-0.5-0.5c-0.4-0.3-0.7-0.6-1.1-0.9
			l-0.2-1.3c0,0,0,0,0.1,0c0,0,0.1-0.1,0.1-0.1c0.1-0.1,0.1-0.1,0.2-0.2c0.1-0.1,0.2-0.3,0.3-0.5c0.1-0.2,0.2-0.3,0.3-0.5
			c0.1-0.2,0.2-0.4,0.2-0.6c0.1-0.2,0.1-0.4,0.2-0.6c0.1-0.2,0.1-0.4,0.2-0.6c0.1-0.2,0.1-0.4,0.2-0.6c0-0.2,0.1-0.4,0.1-0.6
			c0.1,0.4,0.2,0.9,0.3,1.3c0,0.2,0,0.4,0.1,0.7c0,0.2,0,0.5,0,0.7c0,0.2,0,0.5-0.1,0.7c0,0.2-0.1,0.5-0.1,0.7
			c-0.1,0.2-0.1,0.5-0.2,0.7c0,0.1-0.1,0.2-0.2,0.3c0,0.1-0.1,0.1-0.1,0.2c0,0.1-0.1,0.1-0.1,0.2l-0.2-1.3c0.4,0.2,0.9,0.5,1.3,0.7
			c0.2,0.1,0.4,0.3,0.6,0.4l0.6,0.4c0.4,0.3,0.8,0.6,1.2,0.9l1.2,1c0.4,0.4,0.7,0.7,1.1,1.1c0.2,0.2,0.3,0.4,0.5,0.6l0.5,0.6
			c0.3,0.4,0.6,0.9,0.9,1.3c0.3,0.4,0.5,0.9,0.8,1.4c0.3,0.5,0.4,1,0.6,1.5c0.2,0.5,0.3,1,0.4,1.5c0.1,0.5,0.2,1.1,0.2,1.6
			c0,0.3,0,0.5,0,0.8l0,0.4c0,0.1,0,0.3,0,0.4c-0.1,0.5-0.1,1-0.2,1.5c-0.1,0.3-0.1,0.5-0.2,0.7l-0.2,0.7c-0.1,0.5-0.4,0.9-0.6,1.4
			C164.4,103.4,164.1,103.8,163.9,104.2z"/>
		<path class="st0" d="M166.8,74.4c0.1-2-7.9-1.4-13.3-0.7c0,0,0.5,1.5,2.1,2.2c-0.1,0.1-0.8,3.3,1,3.8c1.8,0.5,1.5-3.4,2.4-3.5
			C159.2,76.3,164,74.3,166.8,74.4z"/>
		<path class="st0" d="M144.7,76.4c0,1,0.9,1.9,2,1.9c1.1,0,2-0.8,2-1.9s-0.9-1.9-2-1.9C145.6,74.5,144.7,75.3,144.7,76.4z"/>
		<path class="st0" d="M109.4,63.1c0,1,0.9,1.9,2,1.9c1.1,0,2-0.8,2-1.9c0-1-0.9-1.9-2-1.9C110.3,61.2,109.4,62.1,109.4,63.1z"/>
		<path class="st1" d="M136.4,68.1"/>
		<path class="st0" d="M154.2,86.9c0,0,0.1,0.3,0.2,0.8c0.1,0.5,0.3,1.2,0.5,2c0.2,0.8,0.4,1.8,0.6,2.8c0.1,0.5,0.2,1,0.3,1.5
			c0.1,0.5,0.2,1,0.4,1.5c0.1,0.2,0.2,0.5,0.2,0.7c0.1,0.2,0.2,0.5,0.3,0.8c0.2,0.4,0.4,0.9,0.6,1.3c0.4,0.9,0.9,1.7,1.4,2.4
			c0.5,0.7,0.8,1.3,1.1,1.8c0.2,0.4,0.3,0.7,0.3,0.7s-0.1,0-0.2-0.1c-0.1-0.1-0.3-0.2-0.5-0.3c-0.4-0.3-1-0.7-1.7-1.2
			c-0.7-0.5-1.4-1.3-2.1-2.2c-0.2-0.2-0.3-0.5-0.5-0.7c-0.2-0.2-0.3-0.5-0.4-0.8c-0.1-0.3-0.2-0.5-0.4-0.8c-0.1-0.3-0.2-0.6-0.3-0.9
			c-0.2-0.6-0.3-1.2-0.4-1.7c-0.1-0.6-0.1-1.1-0.2-1.7c-0.1-1.1,0-2.1,0.1-2.9c0.1-0.9,0.2-1.6,0.3-2.1c0.1-0.2,0.1-0.4,0.1-0.6
			C154.2,87,154.2,86.9,154.2,86.9z"/>
	</g>
</g>
</svg>
