<?xml version="1.0" encoding="utf-8"?>
<!-- Generator: Adobe Illustrator 25.3.1, SVG Export Plug-In . SVG Version: 6.00 Build 0)  -->
<svg version="1.1" id="Capa_1" xmlns="http://www.w3.org/2000/svg" xmlns:xlink="http://www.w3.org/1999/xlink" x="0px" y="0px"
	 viewBox="0 0 200 200" style="enable-background:new 0 0 200 200;" xml:space="preserve">
<style type="text/css">
	.st0{fill:#B2B2B2;}
</style>
<g id="XMLID_52_">
	<g id="XMLID_63_">
		<g id="XMLID_64_">
			<path id="XMLID_95_" class="st0" d="M8.6,158.8H2.4v-4.5h5.2c0.3,0,0.6-0.1,0.8-0.3c0.2-0.2,0.3-0.5,0.3-0.8
				c0-0.3-0.1-0.6-0.3-0.8c-0.2-0.2-0.5-0.3-0.8-0.3H2.4v-4.5h6.2c0.3,0,0.6-0.1,0.8-0.3c0.2-0.2,0.3-0.5,0.3-0.8
				c0-0.3-0.1-0.6-0.3-0.8c-0.2-0.2-0.5-0.3-0.8-0.3H1.3c-0.3,0-0.6,0.1-0.8,0.3c-0.2,0.2-0.3,0.5-0.3,0.8v13.4
				c0,0.3,0.1,0.6,0.3,0.8c0.2,0.2,0.5,0.3,0.8,0.3h7.3c0.3,0,0.6-0.1,0.8-0.3c0.2-0.2,0.3-0.5,0.3-0.8c0-0.3-0.1-0.6-0.3-0.8
				C9.2,158.9,8.9,158.8,8.6,158.8z"/>
			<path id="XMLID_94_" class="st0" d="M17.7,155c-0.5-0.3-1.2-0.6-2.2-0.9c-0.9-0.3-1.3-0.4-1.5-0.5c-0.2-0.2-0.3-0.4-0.3-0.7
				c0-0.4,0.1-0.6,0.4-0.9c0.3-0.3,0.6-0.4,1.1-0.4c0.3,0,0.6,0.1,0.8,0.2c0.2,0.1,0.4,0.3,0.5,0.6c0.1,0.3,0.3,0.5,0.6,0.6
				c0.3,0.1,0.6,0.1,0.8,0c0.3-0.1,0.5-0.3,0.6-0.6c0.1-0.3,0.1-0.6,0-0.9c-0.3-0.6-0.7-1.2-1.4-1.5c-0.6-0.4-1.3-0.6-2-0.6
				c-1,0-1.9,0.3-2.6,1c-0.7,0.7-1.1,1.5-1.1,2.5c0,1.1,0.4,1.9,1.2,2.5c0.5,0.3,1.2,0.6,2.2,0.9c0.8,0.2,1.2,0.4,1.5,0.5
				c0.2,0.2,0.3,0.4,0.3,0.8c0,0.4-0.1,0.6-0.4,0.9c-0.3,0.3-0.6,0.4-1,0.4c-0.4,0-0.7-0.1-1.1-0.4c-0.3-0.2-0.6-0.5-0.8-0.8
				c-0.2-0.3-0.4-0.4-0.7-0.5c-0.3-0.1-0.6,0-0.8,0.1c-0.3,0.2-0.4,0.4-0.5,0.7c-0.1,0.3,0,0.6,0.1,0.8c0.4,0.6,0.8,1.1,1.4,1.5
				c0.7,0.5,1.5,0.7,2.3,0.7c1,0,1.9-0.3,2.6-1c0.7-0.7,1.1-1.5,1.1-2.5C19,156.4,18.5,155.6,17.7,155z"/>
			<path id="XMLID_93_" class="st0" d="M26.6,149.6c-0.2-0.2-0.5-0.3-0.8-0.3h-1.3v-2.7c0-0.3-0.1-0.6-0.3-0.8
				c-0.2-0.2-0.5-0.3-0.8-0.3c-0.3,0-0.6,0.1-0.8,0.3c-0.2,0.2-0.3,0.5-0.3,0.8v2.7H21c-0.3,0-0.6,0.1-0.8,0.3
				c-0.2,0.2-0.3,0.5-0.3,0.8c0,0.3,0.1,0.6,0.3,0.8c0.2,0.2,0.5,0.3,0.8,0.3h1.3v8.4c0,0.3,0.1,0.6,0.3,0.8
				c0.2,0.2,0.5,0.3,0.8,0.3c0.3,0,0.6-0.1,0.8-0.3c0.2-0.2,0.3-0.5,0.3-0.8v-8.4h1.3c0.3,0,0.6-0.1,0.8-0.3
				c0.2-0.2,0.3-0.5,0.3-0.8C27,150.1,26.8,149.8,26.6,149.6z"/>
			<path id="XMLID_90_" class="st0" d="M39.2,155.9c0.2-0.2,0.3-0.5,0.3-0.8c0-0.8-0.2-1.6-0.5-2.3c-0.3-0.7-0.7-1.3-1.3-1.9
				c-1.2-1.1-2.6-1.7-4.2-1.7c-0.8,0-1.6,0.2-2.3,0.5c-0.7,0.3-1.3,0.7-1.9,1.3c-1.1,1.1-1.7,2.5-1.7,4.2c0,0.8,0.2,1.6,0.5,2.3
				c0.3,0.7,0.7,1.3,1.3,1.9c1.1,1.1,2.6,1.7,4.2,1.7c2,0,3.6-0.7,4.8-2c0.2-0.2,0.3-0.5,0.3-0.8c0-0.3-0.1-0.6-0.4-0.8
				c-0.2-0.2-0.5-0.3-0.7-0.3c0,0-0.1,0-0.1,0c-0.3,0-0.6,0.1-0.8,0.4c-0.7,0.8-1.8,1.2-3.1,1.2c-0.9,0-1.6-0.3-2.3-0.8
				c-0.6-0.5-1-1-1.2-1.7h8.3C38.7,156.3,39,156.1,39.2,155.9z M30.1,154c0.2-0.7,0.6-1.3,1.2-1.8c0.7-0.5,1.4-0.8,2.3-0.8
				c0.8,0,1.6,0.3,2.3,0.8c0.6,0.5,1,1.1,1.2,1.8H30.1z"/>
			<path id="XMLID_87_" class="st0" d="M51.3,151c-1.1-1.1-2.5-1.7-4.1-1.7c-1.3,0-2.5,0.4-3.6,1.3v-4c0-0.3-0.1-0.6-0.3-0.8
				c-0.2-0.2-0.5-0.3-0.8-0.3c-0.3,0-0.6,0.1-0.8,0.3c-0.2,0.2-0.3,0.5-0.3,0.8v13.4c0,0.3,0.1,0.6,0.3,0.8c0.4,0.4,1.1,0.4,1.6,0
				c0.2-0.2,0.3-0.5,0.3-0.8v-0.1c1,0.8,2.2,1.2,3.6,1.2c1.6,0,2.9-0.6,4.1-1.7c1.1-1.1,1.7-2.5,1.7-4.1
				C53,153.5,52.4,152.1,51.3,151z M47.3,158.8c-1,0-1.8-0.4-2.5-1.1c-0.7-0.7-1-1.6-1-2.6c0-1,0.4-1.9,1-2.6
				c0.7-0.7,1.5-1.1,2.5-1.1c1,0,1.8,0.4,2.5,1.1c0.7,0.7,1,1.6,1,2.6c0,1-0.3,1.9-1,2.6C49.1,158.4,48.2,158.8,47.3,158.8z"/>
			<path id="XMLID_84_" class="st0" d="M65.9,149.6c-0.2-0.2-0.5-0.3-0.8-0.3c-0.3,0-0.6,0.1-0.8,0.3c-0.2,0.2-0.3,0.5-0.3,0.8v0.1
				c-1-0.8-2.2-1.2-3.6-1.2c-1.6,0-3,0.6-4.1,1.7c-1.1,1.1-1.7,2.5-1.7,4.2c0,1.6,0.6,3,1.7,4.1c1.1,1.1,2.5,1.7,4.1,1.7
				c1.3,0,2.5-0.4,3.6-1.2v0.1c0,0.3,0.1,0.6,0.3,0.8c0.2,0.2,0.5,0.3,0.8,0.3c0.3,0,0.6-0.1,0.8-0.3c0.2-0.2,0.3-0.5,0.3-0.8v-9.5
				C66.2,150.1,66.1,149.8,65.9,149.6z M60.4,158.8c-1,0-1.8-0.3-2.5-1.1c-0.7-0.7-1.1-1.6-1.1-2.6c0-1,0.4-1.9,1.1-2.6
				c0.7-0.7,1.5-1.1,2.5-1.1c1,0,1.8,0.4,2.5,1.1c0.7,0.7,1,1.6,1,2.6c0,1-0.3,1.9-1,2.6C62.3,158.4,61.4,158.8,60.4,158.8z"/>
			<path id="XMLID_83_" class="st0" d="M78.1,151c-1-1.1-2.3-1.7-3.8-1.7c-1.2,0-2.3,0.4-3.2,1.1v0c0-0.3-0.1-0.6-0.3-0.8
				c-0.2-0.2-0.5-0.3-0.8-0.3c-0.3,0-0.6,0.1-0.8,0.3c-0.2,0.2-0.3,0.5-0.3,0.8v9.5c0,0.3,0.1,0.6,0.3,0.8c0.2,0.2,0.5,0.3,0.8,0.3
				c0.3,0,0.6-0.1,0.8-0.3c0.2-0.2,0.3-0.5,0.3-0.8v-4.8c0-1,0.3-1.9,0.9-2.6c0.6-0.7,1.4-1.1,2.3-1.1c0.9,0,1.6,0.4,2.2,1.1
				c0.6,0.7,0.9,1.6,0.9,2.6v4.8c0,0.3,0.1,0.6,0.3,0.8c0.2,0.2,0.5,0.3,0.8,0.3c0.3,0,0.6-0.1,0.8-0.3c0.2-0.2,0.3-0.5,0.3-0.8
				v-4.8C79.7,153.5,79.1,152.1,78.1,151z"/>
			<path id="XMLID_82_" class="st0" d="M98.9,158.8h-6.2v-4.5h5.2c0.3,0,0.6-0.1,0.8-0.3c0.2-0.2,0.3-0.5,0.3-0.8
				c0-0.3-0.1-0.6-0.3-0.8c-0.2-0.2-0.5-0.3-0.8-0.3h-5.2v-4.5h6.2c0.3,0,0.6-0.1,0.8-0.3c0.2-0.2,0.3-0.5,0.3-0.8
				c0-0.3-0.1-0.6-0.3-0.8c-0.2-0.2-0.5-0.3-0.8-0.3h-7.3c-0.3,0-0.6,0.1-0.8,0.3c-0.2,0.2-0.3,0.5-0.3,0.8v13.4
				c0,0.3,0.1,0.6,0.3,0.8c0.2,0.2,0.5,0.3,0.8,0.3h7.3c0.3,0,0.6-0.1,0.8-0.3c0.2-0.2,0.3-0.5,0.3-0.8c0-0.3-0.1-0.6-0.3-0.8
				C99.5,158.9,99.2,158.8,98.9,158.8z"/>
			<path id="XMLID_81_" class="st0" d="M111.6,157c-0.3-0.2-0.5-0.2-0.8-0.2c-0.3,0.1-0.6,0.2-0.7,0.4c-0.7,1-1.7,1.5-2.9,1.5
				c-1,0-1.8-0.3-2.5-1.1c-0.7-0.7-1-1.6-1-2.6c0-1,0.4-1.9,1-2.6c0.7-0.7,1.5-1.1,2.5-1.1c1.2,0,2.1,0.5,2.9,1.5
				c0.2,0.3,0.4,0.4,0.7,0.5c0.3,0.1,0.6,0,0.8-0.2c0.3-0.2,0.4-0.4,0.5-0.7c0-0.1,0-0.1,0-0.2c0-0.2-0.1-0.4-0.2-0.6
				c-1.2-1.6-2.7-2.4-4.7-2.4c-1.6,0-3,0.6-4.1,1.7c-1.1,1.1-1.7,2.5-1.7,4.2c0,1.6,0.6,3,1.7,4.1c1.1,1.1,2.5,1.7,4.1,1.7
				c1.9,0,3.5-0.8,4.7-2.4c0.1-0.2,0.2-0.4,0.2-0.6c0-0.1,0-0.1,0-0.2C112,157.4,111.9,157.2,111.6,157z"/>
			<path id="XMLID_80_" class="st0" d="M123.7,151c-1-1.1-2.3-1.7-3.8-1.7c-1.2,0-2.2,0.4-3.2,1.1v-3.9c0-0.3-0.1-0.6-0.3-0.8
				c-0.2-0.2-0.5-0.3-0.8-0.3c-0.3,0-0.6,0.1-0.8,0.3c-0.2,0.2-0.3,0.5-0.3,0.8v13.4c0,0.3,0.1,0.6,0.3,0.8c0.2,0.2,0.5,0.3,0.8,0.3
				c0.3,0,0.6-0.1,0.8-0.3c0.2-0.2,0.3-0.5,0.3-0.8v-4.8c0-1,0.3-1.9,0.9-2.6c0.6-0.7,1.4-1.1,2.2-1.1c0.9,0,1.6,0.4,2.2,1.1
				c0.6,0.7,1,1.6,1,2.6v4.8c0,0.3,0.1,0.6,0.3,0.8c0.2,0.2,0.5,0.3,0.8,0.3c0.3,0,0.6-0.1,0.8-0.3c0.2-0.2,0.3-0.5,0.3-0.8v-4.8
				C125.3,153.5,124.8,152.1,123.7,151z"/>
			<path id="XMLID_77_" class="st0" d="M139.2,155.9c0.2-0.2,0.3-0.5,0.3-0.8c0-0.8-0.2-1.6-0.5-2.3c-0.3-0.7-0.7-1.3-1.3-1.9
				c-1.2-1.1-2.6-1.7-4.2-1.7c-0.8,0-1.6,0.2-2.3,0.5c-0.7,0.3-1.3,0.7-1.9,1.3c-1.1,1.1-1.7,2.5-1.7,4.2c0,0.8,0.2,1.6,0.5,2.3
				c0.3,0.7,0.7,1.3,1.3,1.9c1.2,1.1,2.6,1.7,4.2,1.7c2,0,3.6-0.7,4.8-2c0.2-0.2,0.3-0.5,0.3-0.8c0-0.3-0.1-0.6-0.4-0.8
				c-0.2-0.2-0.5-0.3-0.7-0.3c0,0-0.1,0-0.1,0c-0.3,0-0.6,0.1-0.8,0.4c-0.7,0.8-1.8,1.2-3.1,1.2c-0.9,0-1.6-0.3-2.3-0.8
				c-0.6-0.5-1-1.1-1.2-1.7h8.3C138.7,156.3,139,156.1,139.2,155.9z M130.1,154c0.2-0.7,0.6-1.3,1.2-1.8c0.7-0.5,1.4-0.8,2.3-0.8
				c0.8,0,1.6,0.3,2.3,0.8c0.6,0.5,1,1.1,1.2,1.8H130.1z"/>
			<path id="XMLID_76_" class="st0" d="M150.8,150c-0.1-0.3-0.3-0.5-0.6-0.6c-0.3-0.1-0.6-0.1-0.9,0c-0.3,0.1-0.5,0.3-0.6,0.6
				l-3,7.1l-3-7.1c-0.1-0.3-0.3-0.5-0.6-0.6c-0.3-0.1-0.5-0.1-0.8,0c-0.3,0.1-0.5,0.3-0.6,0.6c-0.1,0.1-0.1,0.3-0.1,0.4
				c0,0.1,0,0.3,0.1,0.4l4.1,9.5c0.2,0.4,0.5,0.7,1,0.7c0.5,0,0.8-0.2,1-0.7l4-9.5c0.1-0.2,0.1-0.3,0.1-0.4
				C150.9,150.2,150.8,150.1,150.8,150z"/>
			<path id="XMLID_73_" class="st0" d="M163.8,155.9c0.2-0.2,0.3-0.5,0.3-0.8c0-0.8-0.2-1.6-0.5-2.3c-0.3-0.7-0.7-1.3-1.3-1.9
				c-1.2-1.1-2.6-1.7-4.2-1.7c-0.8,0-1.6,0.2-2.3,0.5c-0.7,0.3-1.3,0.7-1.9,1.3c-1.1,1.1-1.7,2.5-1.7,4.2c0,0.8,0.2,1.6,0.5,2.3
				c0.3,0.7,0.7,1.3,1.3,1.9c1.2,1.1,2.6,1.7,4.2,1.7c2,0,3.6-0.7,4.8-2c0.2-0.2,0.3-0.5,0.3-0.8c0-0.3-0.1-0.6-0.4-0.8
				c-0.2-0.2-0.5-0.3-0.7-0.3c0,0-0.1,0-0.1,0c-0.3,0-0.6,0.1-0.8,0.4c-0.7,0.8-1.8,1.2-3.1,1.2c-0.9,0-1.6-0.3-2.3-0.8
				c-0.6-0.5-1-1-1.2-1.7h8.3C163.3,156.3,163.6,156.1,163.8,155.9z M154.7,154c0.2-0.7,0.6-1.3,1.2-1.8c0.7-0.5,1.4-0.8,2.3-0.8
				c0.8,0,1.6,0.3,2.3,0.8c0.6,0.5,1,1.1,1.2,1.8H154.7z"/>
			<path id="XMLID_72_" class="st0" d="M173,149.6c-0.2-0.2-0.5-0.3-0.8-0.3c-1.2,0-2.2,0.4-3.2,1.1v0c0-0.3-0.1-0.6-0.3-0.8
				c-0.2-0.2-0.5-0.3-0.8-0.3c-0.3,0-0.6,0.1-0.8,0.3c-0.2,0.2-0.3,0.5-0.3,0.8v9.5c0,0.3,0.1,0.6,0.3,0.8c0.2,0.2,0.5,0.3,0.8,0.3
				c0.3,0,0.6-0.1,0.8-0.3c0.2-0.2,0.3-0.5,0.3-0.8v-4.8c0-1,0.3-1.9,0.9-2.6c0.6-0.7,1.4-1.1,2.2-1.1c0.3,0,0.6-0.1,0.8-0.3
				c0.2-0.2,0.3-0.5,0.3-0.8C173.3,150.1,173.2,149.8,173,149.6z"/>
			<path id="XMLID_71_" class="st0" d="M181.4,149.6c-0.2-0.2-0.5-0.3-0.8-0.3c-1.2,0-2.3,0.4-3.2,1.1v0c0-0.3-0.1-0.6-0.3-0.8
				c-0.2-0.2-0.5-0.3-0.8-0.3c-0.3,0-0.6,0.1-0.8,0.3c-0.2,0.2-0.3,0.5-0.3,0.8v9.5c0,0.3,0.1,0.6,0.3,0.8c0.2,0.2,0.5,0.3,0.8,0.3
				c0.3,0,0.6-0.1,0.8-0.3c0.2-0.2,0.3-0.5,0.3-0.8v-4.8c0-1,0.3-1.9,0.9-2.6c0.6-0.7,1.4-1.1,2.2-1.1c0.3,0,0.6-0.1,0.8-0.3
				c0.2-0.2,0.3-0.5,0.3-0.8C181.7,150.1,181.6,149.8,181.4,149.6z"/>
			<g id="XMLID_68_">
				<path id="XMLID_70_" class="st0" d="M185.2,149.3c-0.3,0-0.6,0.1-0.8,0.3c-0.2,0.2-0.3,0.5-0.3,0.8v9.5c0,0.3,0.1,0.6,0.3,0.8
					c0.2,0.2,0.5,0.3,0.8,0.3c0.3,0,0.6-0.1,0.8-0.3c0.2-0.2,0.3-0.5,0.3-0.8v-9.5c0-0.3-0.1-0.6-0.3-0.8
					C185.7,149.4,185.5,149.3,185.2,149.3z"/>
				<path id="XMLID_69_" class="st0" d="M187.3,145.7c-0.1-0.3-0.2-0.5-0.5-0.6c-0.3-0.2-0.5-0.2-0.8-0.1c-0.3,0.1-0.5,0.2-0.6,0.5
					l-0.9,1.4c-0.1,0.2-0.2,0.4-0.2,0.5c0,0.1,0,0.2,0,0.3c0.1,0.3,0.2,0.5,0.5,0.7c0.2,0.1,0.3,0.1,0.5,0.1c0.4,0,0.7-0.2,0.9-0.5
					l0.9-1.4c0.1-0.2,0.2-0.4,0.2-0.5C187.4,145.8,187.3,145.8,187.3,145.7z"/>
			</g>
			<path id="XMLID_65_" class="st0" d="M199.5,149.6c-0.2-0.2-0.5-0.3-0.8-0.3c-0.3,0-0.6,0.1-0.8,0.3c-0.2,0.2-0.3,0.5-0.3,0.8v0.1
				c-1-0.8-2.2-1.2-3.5-1.2c-1.6,0-3,0.6-4.1,1.7c-1.1,1.1-1.7,2.5-1.7,4.2c0,1.6,0.6,3,1.7,4.1c1.1,1.1,2.5,1.7,4.1,1.7
				c1.3,0,2.5-0.4,3.5-1.2v0.1c0,0.3,0.1,0.6,0.3,0.8c0.2,0.2,0.5,0.3,0.8,0.3c0.3,0,0.6-0.1,0.8-0.3c0.2-0.2,0.3-0.5,0.3-0.8v-9.5
				C199.8,150.1,199.7,149.8,199.5,149.6z M194,158.8c-1,0-1.8-0.3-2.5-1.1c-0.7-0.7-1-1.6-1-2.6c0-1,0.4-1.9,1-2.6
				c0.7-0.7,1.5-1.1,2.5-1.1c1,0,1.8,0.4,2.5,1.1c0.7,0.7,1,1.6,1,2.6c0,1-0.3,1.9-1,2.6C195.8,158.4,195,158.8,194,158.8z"/>
		</g>
	</g>
	<path id="XMLID_54_" class="st0" d="M73.6,116.9c-10-5.5-19.9-10-28.7-12.9c-0.2-0.1-0.4-0.3-0.3-0.6c0.1-0.2,0.3-0.4,0.5-0.3
		c9,2.1,19.4,5.7,29.8,10.4c9.6,4.3,17.9,9.1,24.6,13.8C96.5,111.8,86.3,98,70.9,90.8c-15.5-7.2-32.8-6-46.6,1.7
		c-0.8,0.5-1.4,1-1.7,1.8c-0.4,0.8-0.4,1.6-0.3,2.5c3,15.6,13.2,29.6,28.7,36.8c15.2,7.1,32.2,6,45.9-1.4
		C90.3,127.1,82.3,121.8,73.6,116.9z"/>
	<path id="XMLID_60_" class="st0" d="M102.5,44.5c-0.8-0.6-1.5-0.8-2.4-0.8c-0.9,0-1.6,0.3-2.4,0.8C84.9,53.8,76.5,68.9,76.5,86
		c0,0.8,0,1.6,0.1,2.4c7.1,4,13.3,9.4,18,16c1.1,1.5,2.1,3.1,3,4.7l1.9-46.9c0-0.3,0.2-0.5,0.5-0.5l0,0c0.3,0,0.5,0.2,0.5,0.5
		l2,46.9c0.9-1.6,2-3.2,3.1-4.7c4.8-6.6,10.9-12.1,18.1-16c0-0.8,0.1-1.6,0.1-2.4C123.8,68.9,115.4,53.8,102.5,44.5z"/>
	<path id="XMLID_57_" class="st0" d="M177.7,94.3c-0.4-0.8-0.9-1.3-1.7-1.8c-13.9-7.7-31.1-9-46.6-1.7c-15.4,7.2-25.6,21-28.6,36.5
		c6.7-4.7,15-9.5,24.6-13.8c10.5-4.7,20.8-8.3,29.8-10.4c0.2-0.1,0.5,0.1,0.5,0.3c0.1,0.2-0.1,0.5-0.3,0.6
		c-8.8,2.9-18.7,7.4-28.7,12.9c-8.7,4.8-16.8,10.2-23.3,15.3c13.7,7.4,30.7,8.5,45.9,1.4c15.5-7.2,25.7-21.2,28.7-36.8
		C178.1,95.9,178,95.1,177.7,94.3z"/>
	<g id="XMLID_53_">
		<g>
			<path class="st0" d="M49.4,81.3c7.8,0,15.4,1.6,22.5,4.8c0,0,0,0,0,0c0-0.4,0-0.7,0-1.1c0,0,0-0.1,0-0.1h0
				c0.2-9.1,2.3-17.2,6.3-24.8c2.3-4.3,5.1-8.4,8.5-12c-20.2,4-37.3,16.7-47.1,34C42.8,81.6,46.1,81.3,49.4,81.3z"/>
			<path class="st0" d="M100.2,135.8C100.2,135.8,100.2,135.8,100.2,135.8C100.1,135.8,100.1,135.8,100.2,135.8
				c-1.7,0.9-3.3,1.8-5,2.5h10C103.5,137.6,101.8,136.7,100.2,135.8z"/>
			<path class="st0" d="M122.3,60.2c4.1,7.9,6.5,16.8,6.5,25.8c7.1-3.1,14.5-4.6,22.2-4.6c3.3,0,6.6,0.3,9.8,0.9
				c-9.8-17.3-26.8-30-46.9-34C117.1,51.8,120,55.8,122.3,60.2z"/>
			<path class="st0" d="M49,137.9c-6.9-3.2-13-7.8-18.1-13.4c0.5,4.8,1.6,9.4,3,13.9h16.1C49.7,138.2,49.4,138,49,137.9z"/>
			<path class="st0" d="M151.3,137.9c-0.4,0.2-0.7,0.3-1.1,0.5h16.1c1.5-4.4,2.5-9.1,3-13.8C164.3,130.1,158.1,134.7,151.3,137.9z"
				/>
		</g>
	</g>
</g>
</svg>
