<?xml version="1.0" encoding="utf-8"?>
<!-- Generator: Adobe Illustrator 25.3.1, SVG Export Plug-In . SVG Version: 6.00 Build 0)  -->
<svg version="1.1" id="Capa_1" xmlns="http://www.w3.org/2000/svg" xmlns:xlink="http://www.w3.org/1999/xlink" x="0px" y="0px"
	 viewBox="0 0 200 50" style="enable-background:new 0 0 200 50;" xml:space="preserve">
<style type="text/css">
	.st0{fill:#1D1D1B;}
	.st1{fill:none;stroke:#1D1D1B;stroke-width:0.1827;stroke-miterlimit:10;}
</style>
<g>
	<path class="st0" d="M28.5,16l0.1-0.1c0.1-0.1,0.3-0.2,0.4-0.2c0.2-0.1,0.5-0.2,0.7-0.3c0.3-0.1,0.7-0.2,1-0.2c0.4,0,0.8,0,1.2,0
		c0.5,0.1,0.9,0.3,1.3,0.5c0.2,0.1,0.4,0.3,0.6,0.4l0.1,0.1l0.1,0.1l0.1,0.1c0.1,0.1,0.2,0.2,0.3,0.3c0.3,0.4,0.6,0.8,0.9,1.2
		c0.5,0.9,0.8,1.8,1,2.7c0.1,0.4,0.2,0.9,0.2,1.3c0,0.1,0,0.2,0,0.2l0,0.1c0,0,0,0,0,0.1l0,0.1c0.1,0.2,0.1,0.3,0.2,0.5
		c0.2,0.3,0.3,0.5,0.5,0.8c0.2,0.2,0.3,0.4,0.5,0.6c0.1,0.2,0.2,0.3,0.3,0.4l0.1,0.1c0,0-0.1,0-0.2-0.1c-0.2-0.1-0.3-0.2-0.4-0.2
		c-0.2-0.1-0.4-0.3-0.6-0.5c-0.3-0.2-0.5-0.5-0.7-0.7c-0.1-0.2-0.3-0.3-0.4-0.5c0-0.1-0.1-0.1-0.1-0.2c0-0.1,0-0.1,0-0.1l0-0.1
		c-0.1-0.1-0.1-0.2-0.1-0.3c-0.1-0.4-0.2-0.8-0.4-1.2c-0.1-0.4-0.3-0.8-0.5-1.2c-0.2-0.4-0.4-0.8-0.6-1.2c-0.2-0.4-0.5-0.7-0.7-1.1
		c-0.1-0.1-0.1-0.2-0.2-0.2L33.4,17l-0.1-0.1l0,0c-0.1-0.1-0.1-0.1-0.2-0.2L33,16.6l-0.1-0.1c-0.3-0.2-0.6-0.4-1-0.5
		c-0.3-0.1-0.7-0.2-1-0.2l-0.2,0h-0.2c-0.2,0-0.3,0-0.4,0c-0.3,0-0.5,0.1-0.7,0.1c-0.2,0-0.4,0.1-0.5,0.1L28.5,16z"/>
	<path class="st0" d="M34.4,28.5c-0.1-0.1-0.2-0.1-0.3-0.2c-0.2-0.2-0.4-0.4-0.6-0.6c-0.1-0.2-0.2-0.3-0.3-0.5
		c-0.1-0.2-0.2-0.4-0.2-0.6c0-0.1,0-0.2-0.1-0.3c0-0.1,0-0.1,0-0.2V26v-0.3v-0.1c0-0.1,0-0.3,0-0.4c0-0.2,0.1-0.5,0.2-0.7
		c0.1-0.2,0.2-0.4,0.3-0.6c0.1-0.2,0.2-0.4,0.4-0.5c0.1-0.1,0.1-0.1,0.2-0.2c0.1-0.1,0.1-0.1,0.2-0.2c0.1-0.1,0.1-0.1,0.2-0.1
		c0.1,0,0.1-0.1,0.2-0.1c0.1-0.1,0.2-0.1,0.3-0.2c0.1,0,0.1,0,0.2-0.1l0.1,0l-0.1,0.1c0,0-0.1,0.1-0.2,0.2c-0.1,0.1-0.1,0.2-0.2,0.3
		c0,0-0.1,0.1-0.1,0.2c0,0.1-0.1,0.1-0.1,0.2c0,0.1-0.1,0.1-0.1,0.2c0,0.1-0.1,0.1-0.1,0.2c0,0.1-0.1,0.2-0.1,0.2
		c0,0.1-0.1,0.2-0.1,0.3c0,0.1-0.1,0.2-0.1,0.3c0,0.1-0.1,0.2-0.1,0.3c0,0.2-0.1,0.4-0.1,0.6c0,0.1,0,0.2,0,0.3v0.1v0.3c0,0,0,0,0,0
		l0,0v0V26c0,0,0,0.1,0,0.1l0,0.3c0,0.2,0,0.4,0.1,0.5s0.1,0.3,0.1,0.5s0.1,0.3,0.1,0.4l0.1,0.3L34.4,28.5z"/>
	<path class="st0" d="M27.3,16.9c-2.3-0.3-5.6-0.6-5.6,0.3c1.2,0,3.2,0.8,3.3,0.8c0.2,0.5,0.4,1.1,1,1.5c0.8-0.2,0.5-1.6,0.5-1.6
		C26.8,17.6,27.1,17.3,27.3,16.9z"/>
	<path class="st0" d="M60.4,23.1c-0.1-1.3-0.3-2.6-0.7-3.9c-0.8-2.6-2-5-3.6-7.1c-1.6-2.1-3.5-4-5.7-5.6C48.3,5,45.8,3.8,43.3,3
		c-2.6-0.7-5.2-1-7.9-0.9c-5.2,0.3-10.1,2.2-14.1,5.6c-1.9,1.6-3.5,3.5-4.8,5.6c-2.4,3.9-3.5,8.5-3.3,13.1c0.1,2.1,0.4,4.1,1,6.1
		c0.5,1.8,1.3,3.6,2.2,5.2c0.9,1.5,1.9,2.8,3.1,4c1.9,2,4.3,3.5,6.9,4.5c1.6,0.6,3.4,1,5.1,1.2c0.6,0.1,1.1,0.1,1.4,0.1l0.5,0
		l-0.5,0c-0.3,0-0.8-0.1-1.4-0.2c-1.7-0.3-3.4-0.8-5-1.5c-2.5-1.1-4.7-2.7-6.5-4.6c-2.3-2.6-4-5.7-4.8-9c-0.5-1.9-0.8-3.9-0.8-5.8
		c0-1,0-2.1,0.1-3.1c0.1-0.5,0.1-1,0.2-1.6c0.1-0.5,0.2-1,0.3-1.6c1.2-4.4,3.7-8.3,7.2-11.1c1.8-1.5,3.9-2.7,6.1-3.6
		c2.3-0.9,4.6-1.4,7.1-1.5C38,3.8,40.4,4,42.8,4.7c4.8,1.4,9,4.4,12,8.4c1.5,2,2.6,4.2,3.3,6.5c0.3,1.2,0.6,2.3,0.7,3.5
		c0.1,1.2,0.1,2.4,0,3.6c-0.2,2.3-0.9,4.6-2.1,6.6c-1.2,1.9-2.7,3.6-4.6,4.9c-1.8,1.2-3.9,2-6,2.4c-0.5,0.1-1,0.2-1.6,0.2
		c-0.5,0-1,0-1.6,0c-1,0-2-0.1-3-0.3c-0.9-0.2-1.8-0.6-2.7-1c-0.8-0.5-1.4-1.1-1.9-1.9c-0.4-0.8-0.7-1.6-0.8-2.5c0-0.1,0-0.2,0-0.3
		c0-0.1,0-0.2,0-0.3v-0.2c0,0,0-0.1,0-0.2v-0.3c0-0.2,0-0.4,0-0.6c0-0.2,0-0.4,0.1-0.6c0.3-1.6,0.9-3.1,1.7-4.5
		c0.7-1.2,1.6-2.4,2.6-3.4c0.9-0.9,1.8-1.7,2.9-2.3c0.4-0.3,0.9-0.5,1.4-0.7c0.1,0,0.2-0.1,0.4-0.1l0.3-0.1c0.2,0,0.4-0.1,0.7-0.1
		c0.7-0.1,1.5-0.1,2.2,0.1c0.4,0.1,0.9,0.3,1.2,0.6c0.1,0.1,0.2,0.2,0.4,0.3c-0.1-0.1-0.2-0.2-0.3-0.3c-0.4-0.3-0.8-0.5-1.2-0.7
		c-0.7-0.2-1.5-0.3-2.2-0.3c-0.2,0-0.5,0-0.7,0.1c-0.1,0-0.2,0-0.4,0.1c-0.1,0-0.2,0.1-0.4,0.1c-0.5,0.2-1,0.4-1.5,0.6
		c-1.1,0.6-2.1,1.4-3,2.2c-1.1,1-2,2.2-2.9,3.4c-0.9,1.4-1.6,3-2,4.7c0,0.2-0.1,0.5-0.1,0.7c0,0.2-0.1,0.5-0.1,0.7l0,0.4
		c0,0.1,0,0.1,0,0.2v0.2c0,0.1,0,0.2,0,0.4c0,0.1,0,0.2,0,0.4c0.1,1,0.3,2,0.8,2.9c0.2,0.3,0.4,0.7,0.7,1c-0.4-0.2-0.9-0.5-1.3-0.8
		c-0.4-0.2-0.7-0.5-1.1-0.8c-0.3-0.3-0.7-0.6-1-0.9c-0.2-0.2-0.3-0.3-0.5-0.5c-0.1-0.1-0.2-0.2-0.2-0.2l-0.1-0.1l-0.1-0.1l-0.1-0.1
		l-0.1-0.1l-0.1-0.1c-0.1-0.1-0.1-0.2-0.2-0.2c-0.1-0.2-0.3-0.4-0.4-0.5c-0.5-0.8-0.9-1.6-1.2-2.5c-0.3-0.9-0.5-1.7-0.7-2.6
		c-0.2-0.9-0.3-1.7-0.3-2.6c0-0.4,0-0.8-0.1-1.2c0-0.4,0-0.8,0-1.1c0-0.4,0-0.7,0.1-1c0-0.2,0-0.3,0.1-0.5c0-0.1,0-0.1,0-0.2v0l0,0
		v0v0v0v-0.1v-0.1c0-0.3,0-0.7-0.2-1c-0.1-0.2-0.3-0.4-0.4-0.6c-0.2-0.3-0.5-0.5-0.8-0.7c-0.2-0.1-0.3-0.2-0.3-0.2s0.1,0.1,0.2,0.3
		c0.2,0.3,0.4,0.5,0.6,0.8c0.1,0.2,0.2,0.4,0.3,0.6c0.1,0.2,0.1,0.4,0,0.7c0,0,0,0,0,0l0,0.1v0v0c0,0,0,0,0,0l0,0l0,0.1
		c0,0.1-0.1,0.2-0.1,0.2c-0.1,0.2-0.1,0.3-0.2,0.5c-0.1,0.3-0.2,0.7-0.2,1.1c-0.1,0.4-0.1,0.8-0.2,1.2c0,0.4-0.1,0.8-0.1,1.3
		c0,0.9,0,1.9,0.1,2.8c0.1,1,0.3,2,0.6,3c0.3,1,0.8,2,1.4,2.9c0.1,0.2,0.3,0.4,0.5,0.7c0.1,0.1,0.2,0.2,0.3,0.3l0.1,0.2l0.1,0.1
		l0.1,0.1l0.1,0.1l0.1,0.1c0.1,0.1,0.2,0.2,0.3,0.3c0.2,0.2,0.4,0.4,0.6,0.5c0.4,0.3,0.8,0.7,1.2,1c0.4,0.3,0.8,0.6,1.2,0.8
		s0.9,0.5,1.3,0.7c0.4,0.2,0.9,0.4,1.3,0.5c0.8,0.3,1.6,0.5,2.4,0.6c0.6,0.1,1.2,0.2,1.9,0.2c1,0.2,2.1,0.4,3.1,0.4
		c0.6,0,1.1,0,1.7,0c0.6,0,1.1-0.1,1.7-0.2c2.3-0.4,4.6-1.2,6.6-2.5c2.1-1.3,3.9-3.2,5.2-5.3c1.3-2.2,2.2-4.7,2.4-7.3
		C60.5,25.7,60.5,24.4,60.4,23.1z"/>
	<path class="st0" d="M52.2,35.4c0-0.2,0-0.4,0.1-0.6c0-0.2,0-0.4,0-0.6s0-0.4,0-0.6c0-0.1,0-0.2,0-0.3l0-0.3l0-0.1l0-0.1
		c0-0.1,0-0.2-0.1-0.3c0-0.1,0-0.2-0.1-0.3s0-0.2-0.1-0.3l-0.1-0.3c0-0.1-0.1-0.2-0.1-0.2l-0.1-0.2c0-0.1-0.1-0.2-0.1-0.2
		c-0.1-0.2-0.2-0.3-0.3-0.5c-0.1-0.2-0.2-0.3-0.3-0.5s-0.2-0.3-0.4-0.4c-0.1-0.1-0.2-0.3-0.4-0.4l-0.4-0.4c-0.1-0.1-0.3-0.3-0.4-0.4
		l-0.2-0.2L49,28c-0.1-0.1-0.3-0.3-0.4-0.4l-0.1-0.5c0,0,0,0,0,0l0,0l0.1-0.1c0-0.1,0.1-0.1,0.1-0.2c0-0.1,0.1-0.1,0.1-0.2
		c0-0.1,0.1-0.2,0.1-0.2S49,26.1,49,26c0-0.1,0.1-0.2,0.1-0.2s0-0.2,0.1-0.3c0-0.1,0-0.2,0.1-0.3c0.1,0.2,0.1,0.4,0.1,0.5
		c0,0.1,0,0.2,0,0.3c0,0.1,0,0.2,0,0.3c0,0.1,0,0.2,0,0.3c0,0.1,0,0.2-0.1,0.3c0,0.1-0.1,0.2-0.1,0.3c0,0.1,0,0.1-0.1,0.1
		c0,0,0,0.1,0,0.1c0,0,0,0.1-0.1,0.1L48.9,27c0.2,0.1,0.4,0.2,0.5,0.3c0.1,0.1,0.2,0.1,0.3,0.2l0.3,0.2c0.2,0.1,0.3,0.2,0.5,0.4
		l0.5,0.4c0.2,0.1,0.3,0.3,0.5,0.5c0.1,0.1,0.1,0.2,0.2,0.2l0.2,0.2c0.1,0.2,0.3,0.3,0.4,0.5c0.2,0.4,0.4,0.8,0.6,1.2
		c0.1,0.2,0.1,0.4,0.2,0.6c0,0.2,0.1,0.4,0.1,0.7c0,0.1,0,0.2,0,0.3v0.2c0,0.1,0,0.1,0,0.2c0,0.2,0,0.4-0.1,0.6c0,0.1,0,0.2-0.1,0.3
		l-0.1,0.3c-0.1,0.2-0.1,0.4-0.2,0.6C52.4,35.1,52.3,35.3,52.2,35.4z"/>
	<path class="st0" d="M53.5,23c0.1-0.9-3.3-0.6-5.6-0.3c0.2,0.4,0.5,0.7,0.9,0.9c-0.1,0-0.3,1.4,0.4,1.6s0.6-1.4,1-1.5
		C50.3,23.8,52.3,22.9,53.5,23z"/>
	<path class="st0" d="M44.2,23.8c0,0.5,0.3,0.9,0.8,0.9c0.5,0,0.9-0.3,0.9-0.8c0-0.5-0.3-0.9-0.8-0.9c0,0,0,0-0.1,0
		C44.6,23,44.2,23.3,44.2,23.8z"/>
	<path class="st0" d="M29.4,18.3c0,0.5,0.3,0.9,0.8,0.9c0.5,0,0.9-0.3,0.9-0.8c0-0.5-0.3-0.9-0.8-0.9c0,0,0,0-0.1,0
		C29.8,17.5,29.5,17.8,29.4,18.3z"/>
	<path class="st0" d="M64.8,2.1h8.5V4h-0.9c-0.6,0-1,0.1-1.1,0.2C71.1,4.4,71,4.7,71,5.3v9.6h1.2c0.8,0,1.5,0,2.3-0.2
		c0.4-0.1,0.8-0.3,1-0.5c0.3-0.3,0.6-0.7,0.7-1.2c0.2-0.7,0.3-1.4,0.4-2.2h1.9v6H64.8v-1.9h0.8c0.6,0,0.9-0.1,1.1-0.2
		c0.2-0.1,0.2-0.5,0.2-1.1V5.3c0-0.6-0.1-0.9-0.2-1.1C66.5,4.1,66.1,4,65.6,4h-0.8L64.8,2.1z"/>
	<path class="st0" d="M80,11.6c0-1.7,0.5-3.1,1.6-4.1C82.7,6.5,84.1,6,86,6c1.9,0,3.3,0.5,4.4,1.5c1.1,1,1.6,2.4,1.6,4.1
		c0,1.7-0.5,3.1-1.6,4.1c-1.1,1-2.5,1.5-4.4,1.5c-1.9,0-3.3-0.5-4.4-1.5S80,13.3,80,11.6z M84,11.6c0,1.4,0.2,2.3,0.5,2.9
		c0.3,0.5,0.8,0.8,1.6,0.8c0.8,0,1.3-0.3,1.6-0.8c0.3-0.5,0.5-1.5,0.5-2.9c0-1.4-0.2-2.4-0.5-2.9c-0.3-0.5-0.8-0.8-1.6-0.8
		c-0.7,0-1.3,0.3-1.6,0.8C84.1,9.3,84,10.2,84,11.6L84,11.6z"/>
	<path class="st0" d="M95,16.9h-1.5V13h1.7c0.5,1.4,1.8,2.3,3.2,2.2c0.4,0,0.8-0.1,1.2-0.2c0.3-0.1,0.4-0.4,0.4-0.7
		c0-0.2-0.1-0.4-0.3-0.6c-0.2-0.1-0.6-0.3-1.4-0.5c-0.1,0-0.3-0.1-0.5-0.1c-1.7-0.4-2.8-0.9-3.3-1.3c-0.4-0.3-0.6-0.6-0.8-1
		c-0.2-0.4-0.3-0.9-0.3-1.3c0-1,0.5-2,1.3-2.6c0.9-0.6,2-1,3.4-1c0.6,0,1.2,0.1,1.8,0.2c0.6,0.2,1.2,0.4,1.7,0.7l0.2-0.6h1.6v3.3
		h-1.6c-0.3-0.6-0.8-1-1.4-1.3c-0.6-0.3-1.2-0.5-1.9-0.5c-0.3,0-0.7,0.1-1,0.2c-0.2,0.2-0.4,0.4-0.4,0.7c0,0.5,0.8,0.9,2.5,1.4
		c0.5,0.1,0.8,0.2,1.1,0.3c0.9,0.2,1.7,0.6,2.3,1.2c0.5,0.5,0.8,1.2,0.8,1.9c0,1-0.5,2-1.3,2.6c-0.9,0.6-2.1,1-3.5,1
		c-0.6,0-1.2-0.1-1.8-0.2c-0.7-0.2-1.3-0.5-1.9-0.8L95,16.9z"/>
	<path class="st0" d="M64.8,34.7v-1.9h0.8c0.6,0,0.9-0.1,1.1-0.2c0.2-0.1,0.2-0.5,0.2-1.1v-8.3c0-0.6-0.1-0.9-0.2-1.1
		c-0.2-0.1-0.5-0.2-1.1-0.2h-0.8V20h8v1.9h-0.4c-0.6,0-1,0.1-1.1,0.2c-0.2,0.1-0.2,0.5-0.2,1.1V26h4.7v-2.9c0-0.6-0.1-0.9-0.2-1.1
		s-0.5-0.2-1.1-0.2H74V20h8v1.9h-0.8c-0.6,0-0.9,0.1-1.1,0.2c-0.2,0.1-0.2,0.5-0.2,1.1v8.3c0,0.6,0.1,0.9,0.2,1.1
		c0.2,0.1,0.5,0.2,1.1,0.2H82v1.9h-8v-1.9h0.4c0.6,0,0.9-0.1,1.1-0.2c0.2-0.1,0.2-0.5,0.2-1.1V28H71v3.4c0,0.6,0.1,0.9,0.2,1.1
		c0.2,0.1,0.5,0.2,1.1,0.2h0.4v1.9L64.8,34.7z"/>
	<path class="st0" d="M83,29.5c0-1.7,0.5-3.1,1.6-4.1c1.1-1,2.5-1.5,4.4-1.5c1.9,0,3.3,0.5,4.4,1.5c1.1,1,1.6,2.4,1.6,4.1
		c0,1.7-0.5,3.1-1.6,4.1c-1.1,1-2.5,1.5-4.4,1.5c-1.9,0-3.3-0.5-4.4-1.5C83.5,32.6,83,31.2,83,29.5z M86.9,29.5
		c0,1.4,0.2,2.3,0.5,2.9c0.3,0.5,0.8,0.8,1.6,0.8s1.3-0.3,1.6-0.8c0.3-0.5,0.5-1.5,0.5-2.9c0-1.4-0.2-2.4-0.5-2.9
		c-0.3-0.5-0.8-0.8-1.6-0.8c-0.8,0-1.3,0.3-1.6,0.8C87.1,27.1,86.9,28.1,86.9,29.5z"/>
	<path class="st0" d="M95.9,34.7v-1.8h0.7c0.4,0,0.7-0.1,0.8-0.2c0.1-0.1,0.2-0.4,0.2-0.8v-4.7c0-0.4-0.1-0.7-0.2-0.8
		c-0.1-0.1-0.4-0.2-0.8-0.2h-0.7v-1.8h5.2v1c0.3-0.4,0.8-0.7,1.2-1c0.4-0.2,0.9-0.3,1.4-0.3c0.7,0,1.3,0.2,1.8,0.7
		c0.5,0.5,0.7,1.1,0.7,1.7c0,0.6-0.2,1.1-0.5,1.5c-0.4,0.4-0.9,0.6-1.4,0.6c-0.4,0-0.8-0.2-1.1-0.4c-0.3-0.3-0.5-0.7-0.5-1.1
		c0-0.3,0.1-0.6,0.3-0.8c0.2-0.2,0.5-0.4,0.8-0.5c-0.1-0.1-0.2-0.1-0.4-0.1c-0.1,0-0.2,0-0.3,0c-0.5,0-1,0.3-1.3,0.9
		c-0.4,0.7-0.6,1.5-0.5,2.2v3.3c0,0.4,0.1,0.7,0.2,0.8c0.1,0.1,0.4,0.2,0.8,0.2h0.9v1.8L95.9,34.7z"/>
	<path class="st0" d="M107,34.7v-1.8h0.6c0.4,0,0.7-0.1,0.8-0.2c0.1-0.1,0.2-0.4,0.2-0.8v-4.7c0-0.4-0.1-0.7-0.2-0.8
		c-0.1-0.1-0.4-0.2-0.8-0.2H107v-1.8h5.1v1.6c0.8-1.2,2.2-1.9,3.7-1.9c1.3,0,2.1,0.3,2.7,0.9c0.5,0.6,0.8,1.6,0.8,3v4
		c0,0.4,0.1,0.7,0.2,0.8c0.1,0.1,0.4,0.2,0.8,0.2h0.5v1.8h-6.4v-1.8h0.2c0.4,0,0.7-0.1,0.8-0.2c0.1-0.1,0.2-0.4,0.2-0.8v-4
		c0-0.6-0.1-1.1-0.4-1.4c-0.3-0.3-0.7-0.5-1.1-0.5c-0.5,0-1,0.2-1.3,0.6c-0.3,0.4-0.5,1-0.5,1.7v3.5c0,0.4,0.1,0.7,0.2,0.8
		c0.1,0.1,0.4,0.2,0.8,0.2h0.2v1.8H107z"/>
	<path class="st0" d="M129.8,31.2h2.6c-0.3,1.3-0.9,2.2-1.8,2.9c-0.9,0.7-2,1-3.4,1c-1.7,0-3-0.5-4-1.5c-1-1-1.5-2.3-1.5-3.9
		c0-1.7,0.5-3.1,1.5-4.1c1-1,2.3-1.5,4-1.5c1.7,0,3.1,0.5,4,1.5s1.4,2.3,1.4,4.1V30h-7.1v0.2c0,0.9,0.2,1.7,0.5,2.1
		c0.4,0.5,1,0.8,1.6,0.7c0.6,0,1.1-0.1,1.5-0.5C129.6,32.2,129.8,31.7,129.8,31.2z M125.5,28.2h3.4v-0.1c0-0.7-0.1-1.3-0.4-1.6
		c-0.3-0.4-0.8-0.6-1.3-0.6c-0.5,0-0.9,0.2-1.2,0.6C125.7,26.9,125.6,27.4,125.5,28.2z"/>
	<path class="st0" d="M133.6,34.7v-1.8h0.7c0.4,0,0.7-0.1,0.8-0.2c0.1-0.1,0.2-0.4,0.2-0.8v-4.7c0-0.4-0.1-0.7-0.2-0.8
		s-0.4-0.2-0.8-0.2h-0.7v-1.8h5.2v1c0.3-0.4,0.8-0.7,1.2-1c0.4-0.2,0.9-0.3,1.4-0.3c0.7,0,1.3,0.2,1.8,0.7c0.5,0.5,0.7,1.1,0.7,1.7
		c0,0.6-0.2,1.1-0.5,1.5c-0.4,0.4-0.9,0.6-1.4,0.6c-0.4,0-0.8-0.2-1.1-0.4c-0.3-0.3-0.5-0.7-0.5-1.1c0-0.3,0.1-0.6,0.3-0.8
		c0.2-0.2,0.5-0.4,0.8-0.5c-0.1-0.1-0.2-0.1-0.4-0.1c-0.1,0-0.2,0-0.3,0c-0.5,0-1,0.3-1.3,0.9c-0.4,0.7-0.6,1.5-0.5,2.2v3.3
		c0,0.4,0.1,0.7,0.2,0.8c0.1,0.1,0.4,0.2,0.8,0.2h0.9v1.8L133.6,34.7z"/>
	<path class="st0" d="M146.4,27.4v-0.1c0-0.5-0.1-0.9-0.2-1c-0.1-0.1-0.4-0.2-0.8-0.2h-0.7v-1.8h5.4v7.5c0,0.4,0.1,0.7,0.2,0.8
		c0.1,0.1,0.4,0.2,0.8,0.2h0.5v1.8h-6.9v-1.8h0.7c0.4,0,0.7-0.1,0.8-0.2s0.2-0.4,0.2-0.8L146.4,27.4z M146.2,21.7
		c0-0.5,0.2-0.9,0.5-1.3c0.7-0.7,1.9-0.7,2.6,0c0.7,0.7,0.7,1.9,0,2.6c-0.7,0.7-1.9,0.7-2.6,0C146.4,22.6,146.2,22.1,146.2,21.7z"/>
	<path class="st0" d="M154.1,26.1h-1.5v-1.6c0.8-0.1,1.6-0.5,2-1.2c0.5-0.7,0.8-1.7,0.9-2.9h2.2v4h2.6v1.8h-2.6v5.7
		c0,0.3,0.1,0.6,0.2,0.9c0.1,0.2,0.4,0.3,0.6,0.3c0.3,0,0.6-0.2,0.7-0.4c0.1-0.3,0.2-0.9,0.2-1.9v-1h1.8v1.5c0,1.3-0.3,2.2-0.9,2.9
		c-0.6,0.6-1.5,0.9-2.7,0.9c-1.3,0-2.2-0.3-2.7-0.9c-0.5-0.6-0.8-1.7-0.8-3.2L154.1,26.1z"/>
	<path class="st0" d="M162.9,29.5c0-1.7,0.5-3.1,1.6-4.1c1.1-1,2.5-1.5,4.4-1.5c1.9,0,3.3,0.5,4.4,1.5s1.6,2.4,1.6,4.1
		c0,1.7-0.5,3.1-1.6,4.1c-1.1,1-2.5,1.5-4.4,1.5c-1.9,0-3.3-0.5-4.4-1.5C163.4,32.6,162.9,31.2,162.9,29.5z M166.8,29.5
		c0,1.4,0.2,2.3,0.5,2.9c0.3,0.5,0.8,0.8,1.6,0.8c0.7,0,1.3-0.3,1.6-0.8c0.3-0.5,0.5-1.5,0.5-2.9c0-1.4-0.2-2.4-0.5-2.9
		c-0.3-0.5-0.8-0.8-1.6-0.8s-1.3,0.3-1.6,0.8C167,27.1,166.8,28.1,166.8,29.5L166.8,29.5z"/>
	<path class="st0" d="M177.9,34.8h-1.5v-3.8h1.7c0.5,1.4,1.8,2.3,3.2,2.2c0.4,0,0.8-0.1,1.2-0.2c0.3-0.1,0.4-0.4,0.4-0.7
		c0-0.2-0.1-0.4-0.3-0.6c-0.2-0.1-0.6-0.3-1.4-0.5c-0.1,0-0.3-0.1-0.5-0.1c-1.7-0.4-2.8-0.9-3.3-1.3c-0.4-0.3-0.6-0.6-0.8-1
		c-0.2-0.4-0.3-0.9-0.3-1.3c0-1,0.5-2,1.3-2.5c0.9-0.6,2-1,3.4-1c0.6,0,1.2,0.1,1.8,0.2c0.6,0.2,1.2,0.4,1.7,0.7l0.2-0.6h1.6v3.3
		h-1.6c-0.3-0.6-0.8-1-1.4-1.3c-0.6-0.3-1.2-0.5-1.9-0.5c-0.3,0-0.7,0.1-1,0.2c-0.2,0.2-0.4,0.4-0.4,0.7c0,0.5,0.8,0.9,2.5,1.4
		c0.5,0.1,0.8,0.2,1.1,0.3c0.9,0.2,1.7,0.6,2.3,1.2c0.5,0.5,0.8,1.2,0.8,1.9c0,1-0.5,2-1.3,2.6c-0.9,0.6-2.1,1-3.5,1
		c-0.6,0-1.2-0.1-1.8-0.2c-0.7-0.2-1.3-0.5-1.9-0.8L177.9,34.8z"/>
	<path class="st0" d="M70.1,40.2L70,41.1h-2.1v6.6h-1v-6.6h-2.1v-0.9H70.1z"/>
	<path class="st0" d="M74.8,47.8l-0.6-1.9h-2.9l-0.6,1.9h-1l2.4-7.5h1.3l2.4,7.5H74.8z M71.6,45H74l-1.2-3.9L71.6,45z"/>
	<path class="st0" d="M78.1,40.2v6.6h3.1l-0.1,0.9h-4v-7.5H78.1z"/>
	<path class="st0" d="M83.5,40.2v6.6h3.1l-0.1,0.9h-4v-7.5H83.5z"/>
	<path class="st0" d="M92,40.2l-0.1,0.8H89v2.5h2.5v0.8H89v2.6h3.1v0.8H88v-7.5H92z"/>
	<path class="st0" d="M96,44.6h-1.2v3.2h-1v-7.5h2c0.9,0,1.7,0.2,2.1,0.5c0.5,0.4,0.8,1,0.7,1.6c0,0.5-0.1,0.9-0.4,1.3
		c-0.3,0.4-0.7,0.6-1.2,0.7l2,3.4h-1.2L96,44.6z M95.9,43.8c0.4,0,0.9-0.1,1.2-0.3c0.3-0.3,0.5-0.7,0.4-1.1c0-0.4-0.1-0.8-0.4-1
		c-0.3-0.2-0.7-0.3-1.4-0.3h-0.9v2.7H95.9z"/>
	<path class="st0" d="M107.5,40.8c0.5,0.4,0.8,1,0.8,1.7c0,0.8-0.3,1.4-0.8,1.8c-0.6,0.4-1.4,0.6-2.1,0.6h-1v2.8h-1v-7.5h2
		C106.2,40.2,107,40.4,107.5,40.8z M106.6,43.9c0.3-0.2,0.5-0.7,0.5-1.3c0-0.5-0.2-0.9-0.5-1.2c-0.4-0.3-0.9-0.4-1.4-0.4h-0.9v3.1
		h0.9C105.8,44.2,106.2,44.1,106.6,43.9L106.6,43.9z"/>
	<path class="st0" d="M111.9,44.6h-1.2v3.2h-1v-7.5h2c0.9,0,1.7,0.2,2.1,0.5c0.5,0.4,0.8,1,0.7,1.6c0,0.5-0.1,0.9-0.4,1.3
		c-0.3,0.4-0.7,0.6-1.2,0.7l2,3.4h-1.2L111.9,44.6z M111.8,43.8c0.4,0,0.9-0.1,1.2-0.3c0.3-0.3,0.5-0.7,0.4-1.1c0-0.4-0.1-0.8-0.4-1
		c-0.3-0.2-0.7-0.3-1.3-0.3h-0.9v2.7H111.8z"/>
	<path class="st0" d="M120.5,40.6c0.5,0.3,0.9,0.8,1.1,1.3c0.3,0.7,0.4,1.4,0.4,2.1c0,0.7-0.1,1.4-0.4,2.1c-0.5,1.1-1.6,1.8-2.8,1.8
		c-0.6,0-1.2-0.1-1.7-0.4c-0.5-0.3-0.9-0.8-1.1-1.3c-0.5-1.4-0.5-2.9,0-4.2c0.7-1.6,2.6-2.2,4.1-1.5
		C120.3,40.4,120.4,40.5,120.5,40.6L120.5,40.6z M117.3,41.7c-0.4,0.5-0.5,1.3-0.5,2.3c0,1,0.2,1.8,0.6,2.3c0.4,0.5,0.9,0.8,1.5,0.7
		c1.4,0,2.1-1,2.1-3s-0.7-3-2.1-3.1C118.3,40.9,117.7,41.2,117.3,41.7z"/>
	<path class="st0" d="M127.8,40.2l-0.1,0.9h-2.1v6.6h-1v-6.6h-2.1v-0.9H127.8z"/>
	<path class="st0" d="M133.1,40.2l-0.1,0.8h-2.9v2.5h2.5v0.8h-2.5V47h3.1v0.8H129v-7.5H133.1z"/>
	<path class="st0" d="M138.8,40.3c0.4,0.2,0.7,0.4,1,0.6l-0.6,0.6c-0.2-0.2-0.5-0.4-0.8-0.5c-0.3-0.1-0.6-0.1-0.9-0.1
		c-0.4,0-0.7,0.1-1.1,0.3c-0.4,0.2-0.6,0.6-0.8,1c-0.2,0.6-0.3,1.1-0.3,1.7c0,1.1,0.2,1.8,0.5,2.3c0.4,0.5,0.9,0.8,1.5,0.7
		c0.5,0,1-0.1,1.4-0.3v-2.3h-1.3l-0.1-0.8h2.5v3.6c-0.7,0.4-1.6,0.7-2.5,0.7c-0.9,0-1.7-0.3-2.3-1c-0.6-0.7-0.8-1.6-0.8-2.9
		c0-0.7,0.1-1.4,0.4-2.1c0.3-0.5,0.7-1,1.2-1.3c0.5-0.3,1.1-0.5,1.6-0.4C137.9,40.1,138.4,40.2,138.8,40.3z"/>
	<path class="st0" d="M142.7,40.2v7.5h-1v-7.5H142.7z"/>
	<path class="st0" d="M149.2,41c0.7,0.5,1,1.5,1,2.9c0,1.4-0.3,2.4-1,2.9c-0.7,0.6-1.6,0.9-2.5,0.9h-1.8v-7.5h1.6
		C147.6,40.2,148.5,40.5,149.2,41z M145.9,41.1V47h0.8c0.6,0,1.2-0.2,1.7-0.6c0.4-0.4,0.7-1.2,0.7-2.3c0-0.6-0.1-1.3-0.3-1.8
		c-0.2-0.4-0.5-0.7-0.9-0.9c-0.4-0.2-0.8-0.2-1.2-0.2H145.9z"/>
	<path class="st0" d="M156.3,40.6c0.5,0.3,0.9,0.8,1.1,1.3c0.3,0.7,0.4,1.4,0.4,2.1c0,0.7-0.1,1.4-0.4,2.1c-0.5,1.1-1.6,1.8-2.8,1.8
		c-0.6,0-1.2-0.1-1.7-0.4c-0.5-0.3-0.9-0.8-1.1-1.3c-0.5-1.4-0.5-2.9,0-4.2c0.2-0.6,0.6-1,1.1-1.3C154,40,155.2,40,156.3,40.6
		L156.3,40.6z M153.1,41.7c-0.4,0.5-0.5,1.3-0.5,2.3s0.2,1.8,0.6,2.3c0.4,0.5,0.9,0.8,1.5,0.7c1.4,0,2.1-1,2.1-3s-0.7-3-2.1-3.1
		C154,40.9,153.4,41.2,153.1,41.7L153.1,41.7z"/>
	<path class="st1" d="M40.7,20.4"/>
	<path class="st0" d="M48.2,28.2c0,0,0,0.1,0.1,0.3c0.1,0.2,0.1,0.5,0.2,0.8c0.1,0.3,0.2,0.7,0.2,1.2c0,0.2,0.1,0.4,0.1,0.6
		c0,0.2,0.1,0.4,0.2,0.6c0,0.1,0.1,0.2,0.1,0.3c0,0.1,0.1,0.2,0.1,0.3c0.1,0.2,0.2,0.4,0.3,0.6c0.2,0.3,0.4,0.7,0.6,1
		c0.2,0.3,0.4,0.5,0.5,0.7c0.1,0.1,0.1,0.2,0.1,0.3l-0.1,0c0,0-0.1-0.1-0.2-0.1c-0.2-0.2-0.5-0.3-0.7-0.5c-0.3-0.3-0.6-0.6-0.9-0.9
		c-0.1-0.2-0.3-0.4-0.4-0.6c-0.1-0.1-0.1-0.2-0.1-0.3c0-0.1-0.1-0.2-0.1-0.4c-0.1-0.2-0.1-0.5-0.2-0.7c0-0.2-0.1-0.5-0.1-0.7
		c0-0.4,0-0.8,0-1.2c0-0.3,0.1-0.6,0.1-0.9C48.1,28.4,48.1,28.3,48.2,28.2L48.2,28.2z"/>
</g>
</svg>
