<?xml version="1.0" encoding="utf-8"?>
<!-- Generator: Adobe Illustrator 25.3.1, SVG Export Plug-In . SVG Version: 6.00 Build 0)  -->
<svg version="1.1" id="Capa_1" xmlns="http://www.w3.org/2000/svg" xmlns:xlink="http://www.w3.org/1999/xlink" x="0px" y="0px"
	 viewBox="0 0 500 500" style="enable-background:new 0 0 500 500;" xml:space="preserve">
<style type="text/css">
	.st0{fill:#383838;}
</style>
<g>
	<path class="st0" d="M393.3,499c-29.6-1.3-62.9-13.2-94.3-30C178.5,404,87.7,310.1,29.7,185.8C15,154,5.2,120.5,7.3,84.8
		c0.9-15.3,5.6-28.9,17.6-39.3C38.9,33.2,52,19.9,67.1,9.2C83-2.1,101.2-1.7,117,9.5c28.3,20.4,47.7,48,58.9,81.1
		c4.9,14.4,1.3,28.3-8.3,39.9c-7.6,9-16,17.5-24.7,25.4c-7.7,7-11,15.1-7.7,24.5c4,11.2,8.2,23.1,14.9,32.8
		c36.1,53.2,80.4,99,131.8,137.6c8.5,6.5,18.8,11,28.8,15.1c11,4.6,21.1,2.4,29.8-6.6c7-7.2,14.4-14,22.2-20.3
		c14.8-12.1,31.6-14.5,49.1-7.3c27.8,11.5,51.5,28.9,69.6,53c15,20,15.8,40.9,0.2,60.4c-12.8,16-27.8,30.5-43.2,44.2
		C428.1,499.1,413.7,499.3,393.3,499z"/>
</g>
</svg>
